<svg height="32" viewBox="0 0 32 32" width="32" xmlns="http://www.w3.org/2000/svg"><g fill="none" fill-rule="evenodd"><circle cx="16" cy="16" fill="none" r="16"/><path d="m7.70711 13.7071c-.39053.3905-1.02369.3905-1.41422 0l-6-6c-.39052-.3905-.39052-1.02368 0-1.41421l6-6c.39053-.39052 1.02369-.39052 1.41422 0 .39049.39053.39049 1.02369 0 1.41422l-4.2929 4.29289h11.58579c.5523 0 1 .44772 1 1 0 .5523-.4477 1-1 1h-11.58579l4.2929 4.2929c.39049.3905.39049 1.0237 0 1.4142z" fill="#fff" transform="translate(8 9)"/></g></svg>