<svg height="32" viewBox="0 0 32 32" width="32" xmlns="http://www.w3.org/2000/svg"><g fill="none" fill-rule="evenodd"><circle cx="16" cy="16" fill="none" r="16"/><path d="m8.2929.29289c.3905-.39052 1.0237-.39052 1.4142 0l6 6c.3905.39053.3905 1.02371 0 1.41421l-6 6c-.3905.3905-1.0237.3905-1.4142 0-.39053-.3905-.39053-1.0237 0-1.4142l4.2929-4.2929h-11.5858c-.55228 0-1-.4477-1-1 0-.55228.44772-1 1-1h11.5858l-4.2929-4.29289c-.39053-.39053-.39053-1.02369 0-1.41422z" fill="#fff" transform="translate(8 9)"/></g></svg>