<svg width="14" height="14" viewBox="0 0 14 14" fill="none" xmlns="http://www.w3.org/2000/svg">
<path fill-rule="evenodd" clip-rule="evenodd" d="M2 0C0.89543 0 0 0.89543 0 2V12C0 13.1046 0.89543 14 2 14H12C13.1046 14 14 13.1046 14 12V2C14 0.89543 13.1046 0 12 0H2ZM11 4C11 3.44772 10.5523 3 10 3C9.4477 3 9 3.44772 9 4V10C9 10.5523 9.4477 11 10 11C10.5523 11 11 10.5523 11 10V4ZM8 6C8 5.44772 7.5523 5 7 5C6.44772 5 6 5.44772 6 6V10C6 10.5523 6.44772 11 7 11C7.5523 11 8 10.5523 8 10V6ZM5 9C5 8.4477 4.55228 8 4 8C3.44772 8 3 8.4477 3 9V10C3 10.5523 3.44772 11 4 11C4.55228 11 5 10.5523 5 10V9Z" fill="#E3003C"/>
</svg>
