<svg width="14" height="16" viewBox="0 0 14 16" fill="none" xmlns="http://www.w3.org/2000/svg">
<path d="M0 10V13C0 14.6569 3.13401 16 7 16C10.866 16 14 14.6569 14 13V10C14 11.6569 10.866 13 7 13C3.13401 13 0 11.6569 0 10Z" fill="#E3003C"/>
<path d="M0 5V8C0 9.6569 3.13401 11 7 11C10.866 11 14 9.6569 14 8V5C14 6.65685 10.866 8 7 8C3.13401 8 0 6.65685 0 5Z" fill="#E3003C"/>
<path d="M14 3C14 4.65685 10.866 6 7 6C3.13401 6 0 4.65685 0 3C0 1.34315 3.13401 0 7 0C10.866 0 14 1.34315 14 3Z" fill="#E3003C"/>
</svg>
