<svg width="14" height="15" viewBox="0 0 14 15" fill="none" xmlns="http://www.w3.org/2000/svg">
<path fill-rule="evenodd" clip-rule="evenodd" d="M0 2C0 0.89543 0.89543 0 2 0H12C13.1046 0 14 0.89543 14 2V10C14 11.1046 13.1046 12 12 12H9.7808L9.903 12.4887L10.7071 13.2929C10.9931 13.5789 11.0787 14.009 10.9239 14.3827C10.7691 14.7563 10.4045 15 10 15H4.00003C3.59557 15 3.23093 14.7563 3.07615 14.3827C2.92137 14.009 3.00692 13.5789 3.29292 13.2929L4.09706 12.4887L4.21925 12H2C0.89543 12 0 11.1046 0 10V2ZM5.7713 9C5.75657 8.9997 5.74189 8.9997 5.72725 9H2V2H12V9H8.2728C8.2582 8.9997 8.2435 8.9997 8.2288 9H5.7713Z" fill="#E3003C"/>
</svg>
