<svg width="32" height="32" viewBox="0 0 32 32" fill="none" xmlns="http://www.w3.org/2000/svg">
<path d="M0 16C0 7.16347 7.16347 0 16 0C24.8365 0 32 7.16347 32 16C32 24.8365 24.8365 32 16 32C7.16347 32 0 24.8365 0 16Z" fill="#1d215f"/>
<path d="M25.5303 15.8657C25.5303 18.1481 23.6461 19.9992 21.3177 19.9992C18.987 19.9992 17.1018 18.1481 17.1018 15.8657C17.1018 13.5844 18.987 11.7333 21.3177 11.7333C23.6461 11.7333 25.5303 13.5844 25.5303 15.8657Z" fill="#FF007F"/>
<path d="M14.8274 15.8657C14.8274 18.1481 12.9422 19.9992 10.6114 19.9992C8.28416 19.9992 6.40002 18.1481 6.40002 15.8657C6.40002 13.5844 8.28416 11.7333 10.6114 11.7333C12.9422 11.7333 14.8274 13.5844 14.8274 15.8657Z" fill="#0960D5"/>
</svg>
