<svg width="151" height="64" viewBox="0 0 151 64" fill="none" xmlns="http://www.w3.org/2000/svg">
<path fill-rule="evenodd" clip-rule="evenodd" d="M96.4232 11.2856V9.85441C96.4232 9.51774 96.2555 9.34914 95.9198 9.34914H92.7618C92.426 9.34914 92.2578 9.51774 92.2578 9.85441V16.0846C92.2578 16.4218 92.426 16.5899 92.7618 16.5899H95.9198C96.2555 16.5899 96.4232 16.4218 96.4232 16.0846V14.6534H99.0268V16.2197C99.0268 17.8025 97.9685 18.863 96.3898 18.863H92.2748C90.7125 18.863 89.6547 17.8025 89.6547 16.2197V9.71985C89.6547 8.1371 90.7125 7.07603 92.2748 7.07603H96.3898C97.9685 7.07603 99.0268 8.1371 99.0268 9.71985V11.2856H96.4232ZM91.3846 3.96094H93.6185L94.3745 5.13953L95.1299 3.96094H97.2969L95.7012 6.40216H92.9803L91.3846 3.96094Z" fill="white"/>
<path fill-rule="evenodd" clip-rule="evenodd" d="M101.883 7.07593H110.08V9.34898H104.487V11.8242H109.24V14.098H104.487V16.5897H110.08V18.8629H101.883V7.07593Z" fill="white"/>
<path fill-rule="evenodd" clip-rule="evenodd" d="M121.805 14.468V16.2194C121.805 17.8022 120.747 18.8633 119.185 18.8633H115.237C113.659 18.8633 112.601 17.8022 112.601 16.2194V15.1584H115.204V16.0843C115.204 16.4215 115.372 16.5901 115.708 16.5901H118.697C119.033 16.5901 119.202 16.4215 119.202 16.0843V14.6031C119.202 14.2659 119.033 14.0978 118.697 14.0978H115.221C113.659 14.0978 112.601 13.0368 112.601 11.454V9.71958C112.601 8.13699 113.659 7.07593 115.221 7.07593H119.168C120.747 7.07593 121.805 8.13699 121.805 9.71958V10.7801H119.202V9.85414C119.202 9.51748 119.033 9.34887 118.697 9.34887H115.708C115.372 9.34887 115.204 9.51748 115.204 9.85414V11.3194C115.204 11.6561 115.372 11.8241 115.708 11.8241H119.185C120.747 11.8241 121.805 12.8852 121.805 14.468" fill="white"/>
<path fill-rule="evenodd" clip-rule="evenodd" d="M127.265 13.2219V18.8628H124.661V7.07593H127.265V12.7337L131.212 7.07593H134.151L130.137 12.7842L134.403 18.8628H131.212L127.265 13.2219Z" fill="white"/>
<path fill-rule="evenodd" clip-rule="evenodd" d="M142.131 18.863H139.528V14.7039L135.296 7.07585H138.403L140.871 12.077L143.408 7.07585H146.347L142.131 14.7039V18.863ZM139.293 6.40197L140.67 3.96021H143.374L141.358 6.40197H139.293Z" fill="white"/>
<path fill-rule="evenodd" clip-rule="evenodd" d="M98.8581 32.9941V34.7455C98.8581 36.3283 97.8003 37.3894 96.2386 37.3894H92.2912C90.7125 37.3894 89.6542 36.3283 89.6542 34.7455V33.6845H92.2578V34.6104C92.2578 34.9476 92.426 35.1162 92.7612 35.1162H95.751C96.0868 35.1162 96.255 34.9476 96.255 34.6104V33.1292C96.255 32.792 96.0868 32.6239 95.751 32.6239H92.2742C90.7125 32.6239 89.6542 31.5629 89.6542 29.9801V28.2457C89.6542 26.6629 90.7125 25.6018 92.2742 25.6018H96.2216C97.8003 25.6018 98.8581 26.6629 98.8581 28.2457V29.3062H96.255V28.3802C96.255 28.0436 96.0868 27.875 95.751 27.875H92.7612C92.426 27.875 92.2578 28.0436 92.2578 28.3802V29.8455C92.2578 30.1822 92.426 30.3502 92.7612 30.3502H96.2386C97.8003 30.3502 98.8581 31.4113 98.8581 32.9941" fill="white"/>
<path fill-rule="evenodd" clip-rule="evenodd" d="M100.708 25.6021H110.13V27.8752H106.72V37.3891H104.117V27.8752H100.708V25.6021Z" fill="white"/>
<path fill-rule="evenodd" clip-rule="evenodd" d="M118.714 37.3891H114.599C113.037 37.3891 111.979 36.328 111.979 34.7452V28.2454C111.979 26.6626 113.037 25.6021 114.599 25.6021H118.714C120.293 25.6021 121.351 26.6626 121.351 28.2454V34.7452C121.351 36.328 120.293 37.3891 118.714 37.3891V37.3891ZM118.748 28.3799C118.748 28.0433 118.579 27.8752 118.243 27.8752H115.086C114.75 27.8752 114.582 28.0433 114.582 28.3799V34.6107C114.582 34.9473 114.75 35.1159 115.086 35.1159H118.243C118.579 35.1159 118.748 34.9473 118.748 34.6107V28.3799Z" fill="white"/>
<path fill-rule="evenodd" clip-rule="evenodd" d="M124.208 25.6021H126.811V35.1159H132.404V37.3891H124.208V25.6021Z" fill="white"/>
<path fill-rule="evenodd" clip-rule="evenodd" d="M137.193 30.401V37.3891H134.589V25.6021H137.025L141.358 32.5901V25.6021H143.961V37.3891H141.526L137.193 30.401Z" fill="white"/>
<path fill-rule="evenodd" clip-rule="evenodd" d="M146.818 25.6017H149.422V37.3887H146.818V25.6017ZM146.919 24.9283L148.296 22.4866H151L148.985 24.9283H146.919Z" fill="white"/>
<path fill-rule="evenodd" clip-rule="evenodd" d="M88.6468 44.1279H98.0693V46.4011H94.6598V55.915H92.0562V46.4011H88.6468V44.1279Z" fill="white"/>
<path fill-rule="evenodd" clip-rule="evenodd" d="M99.918 44.1279H108.115V46.4011H102.522V48.8764H107.275V51.1501H102.522V53.6418H108.115V55.915H99.918V44.1279Z" fill="white"/>
<path fill-rule="evenodd" clip-rule="evenodd" d="M113.238 48.9271V55.9152H110.635V44.1282H113.071L117.404 51.1163V44.1282H120.007V55.9152H117.572L113.238 48.9271Z" fill="white"/>
<path fill-rule="evenodd" clip-rule="evenodd" d="M122.864 55.9152H125.468V44.1282H122.864V55.9152Z" fill="white"/>
<path fill-rule="evenodd" clip-rule="evenodd" d="M137.528 51.5202V53.2717C137.528 54.8545 136.47 55.9155 134.908 55.9155H130.96C129.382 55.9155 128.324 54.8545 128.324 53.2717V52.2106H130.927V53.1365C130.927 53.4738 131.095 53.6424 131.431 53.6424H134.42C134.756 53.6424 134.925 53.4738 134.925 53.1365V51.6553C134.925 51.3181 134.756 51.1501 134.42 51.1501H130.944C129.382 51.1501 128.324 50.089 128.324 48.5062V46.7718C128.324 45.189 129.382 44.1279 130.944 44.1279H134.891C136.47 44.1279 137.528 45.189 137.528 46.7718V47.8323H134.925V46.9064C134.925 46.5697 134.756 46.4011 134.42 46.4011H131.431C131.095 46.4011 130.927 46.5697 130.927 46.9064V48.3716C130.927 48.7083 131.095 48.8764 131.431 48.8764H134.908C136.47 48.8764 137.528 49.9374 137.528 51.5202" fill="white"/>
<path fill-rule="evenodd" clip-rule="evenodd" d="M43.1279 5.99403C43.1279 9.30464 40.4515 11.9881 37.1494 11.9881C33.8474 11.9881 31.1709 9.30464 31.1709 5.99403C31.1709 2.68342 33.8474 0 37.1494 0C40.4515 0 43.1279 2.68342 43.1279 5.99403ZM20.073 34.5582H35.1522V29.7009L36.9995 31.5531L37.1493 31.403L37.2991 31.5531L39.1466 29.7008V34.5582H54.2252V56.3342H60.2196V34.5582H74.2987V28.5482H60.2196V28.5477H54.2252V28.5482H40.2962L62.6424 6.14396L58.4037 1.89421L37.1493 23.2037L15.8951 1.89421L11.6563 6.14396L34.0025 28.5482H20.073V28.5477H14.0786V28.5482H0V34.5582H14.0786V56.3342H20.073V34.5582Z" fill="white"/>
<path fill-rule="evenodd" clip-rule="evenodd" d="M34.1522 64.0001H40.1466V28.5483H34.1522V64.0001Z" fill="white"/>
</svg>
