<svg height="20" viewBox="0 0 20 20" width="20" xmlns="http://www.w3.org/2000/svg"><path d="m10.7071136 2.29289c-.3905006-.39052-1.02368159-.39052-1.4142122 0l-7.00001094 7c-.39052061.39053-.39052061 1.02371 0 1.41421.39053061.3905 1.0236916.3905 1.41422221 0l.29288733-.2929v6.5858c0 .5523.44772382 1 1 1h2c.55228868 0 1-.4477 1-1v-2c0-.5523.44773007-1 1.00001094-1h2.00000316c.5523008 0 1.0000015.4477 1.0000015 1v2c0 .5523.4477007 1 1.0000016 1h2.0000031c.5523009 0 1.0000016-.4477 1.0000016-1v-6.5858l.2929004.2929c.3905006.3905 1.0237016.3905 1.4142022 0 .3905007-.3905.3905007-1.02368 0-1.41421z" fill="#e3003c"/></svg>