<svg width="32" height="32" viewBox="0 0 32 32" fill="#fff" xmlns="http://www.w3.org/2000/svg">
<path d="M0 16C0 7.16347 7.16347 0 16 0C24.8365 0 32 7.16347 32 16C32 24.8365 24.8365 32 16 32C7.16347 32 0 24.8365 0 16Z" fill="#1d215f"/>


<path fill-rule="evenodd" clip-rule="evenodd" d="M0 16C0 7.16347 7.16347 0 16 0C24.8365 0 32 7.16347 32 16C32 24.8365 24.8365 32 16 32C7.16347 32 0 24.8365 0 16Z" fill="#1d215f"/>






<mask id="mask0" mask-type="alpha" maskUnits="userSpaceOnUse" x="0" y="0" width="32" height="32">
<path fill-rule="evenodd" clip-rule="evenodd" d="M0 16C0 7.16347 7.16347 0 16 0C24.8365 0 32 7.16347 32 16C32 24.8365 24.8365 32 16 32C7.16347 32 0 24.8365 0 16Z" fill="#fff"/>
</mask>
<g mask="url(#mask0)">
<path fill-rule="evenodd" clip-rule="evenodd" d="M16.0008 7.46667C13.6833 7.46667 13.3924 7.47681 12.4822 7.51821C11.5737 7.55981 10.9537 7.70361 10.4111 7.91467C9.84981 8.13261 9.37374 8.42414 8.89941 8.89867C8.42474 9.37294 8.13314 9.84907 7.91447 10.4101C7.70294 10.9529 7.55894 11.5731 7.51807 12.4813C7.47734 13.3915 7.46667 13.6825 7.46667 16.0001C7.46667 18.3176 7.47701 18.6075 7.51821 19.5178C7.56001 20.4263 7.70381 21.0463 7.91467 21.5889C8.13281 22.1501 8.42434 22.6263 8.89887 23.1006C9.37301 23.5753 9.84907 23.8675 10.41 24.0855C10.9529 24.2965 11.5732 24.4403 12.4815 24.4819C13.3917 24.5233 13.6824 24.5335 15.9997 24.5335C18.3175 24.5335 18.6074 24.5233 19.5177 24.4819C20.4261 24.4403 21.0469 24.2965 21.5899 24.0855C22.1509 23.8675 22.6263 23.5753 23.1004 23.1006C23.5751 22.6263 23.8667 22.1501 24.0853 21.5891C24.2951 21.0463 24.4391 20.4261 24.4818 19.5179C24.5227 18.6077 24.5333 18.3176 24.5333 16.0001C24.5333 13.6825 24.5227 13.3917 24.4818 12.4815C24.4391 11.573 24.2951 10.9529 24.0853 10.4103C23.8667 9.84907 23.5751 9.37294 23.1004 8.89867C22.6257 8.42401 22.1511 8.13241 21.5893 7.91467C21.0453 7.70361 20.4249 7.55981 19.5164 7.51821C18.6061 7.47681 18.3164 7.46667 15.9981 7.46667H16.0008ZM15.7162 9.00434H15.7164L16.0008 9.00441C18.2791 9.00441 18.5492 9.01261 19.4489 9.05347C20.2809 9.09154 20.7325 9.23054 21.0333 9.34734C21.4315 9.50201 21.7155 9.68694 22.0139 9.98561C22.3126 10.2843 22.4975 10.5687 22.6525 10.9669C22.7693 11.2674 22.9085 11.7189 22.9464 12.5509C22.9872 13.4505 22.9962 13.7207 22.9962 15.9981C22.9962 18.2755 22.9872 18.5457 22.9464 19.4453C22.9083 20.2773 22.7693 20.7288 22.6525 21.0293C22.4978 21.4275 22.3126 21.7111 22.0139 22.0095C21.7153 22.3082 21.4317 22.4931 21.0333 22.6478C20.7329 22.7651 20.2809 22.9038 19.4489 22.9418C18.5494 22.9827 18.2791 22.9916 16.0008 22.9916C13.7222 22.9916 13.4521 22.9827 12.5526 22.9418C11.7206 22.9034 11.269 22.7644 10.9681 22.6476C10.5698 22.4929 10.2853 22.308 9.98667 22.0093C9.688 21.7107 9.50314 21.4269 9.34814 21.0285C9.23134 20.7281 9.09214 20.2765 9.05427 19.4445C9.01334 18.545 9.00521 18.2747 9.00521 15.996C9.00521 13.7172 9.01334 13.4484 9.05427 12.5488C9.09227 11.7168 9.23134 11.2653 9.34814 10.9645C9.5028 10.5662 9.688 10.2818 9.98667 9.98314C10.2853 9.68447 10.5698 9.49954 10.9681 9.34454C11.2689 9.22721 11.7206 9.08854 12.5526 9.05027C13.3398 9.01474 13.6448 9.00407 15.2352 9.00227V9.00441C15.3838 9.00421 15.5437 9.00427 15.7162 9.00434ZM19.5319 11.445C19.5319 10.8795 19.9905 10.4213 20.5559 10.4213V10.421C21.1212 10.421 21.5799 10.8797 21.5799 11.445C21.5799 12.0103 21.1212 12.469 20.5559 12.469C19.9905 12.469 19.5319 12.0103 19.5319 11.445ZM16.0006 11.6178C13.5806 11.6179 11.6185 13.58 11.6185 16.0001C11.6185 18.4202 13.5807 20.3815 16.0008 20.3815C18.4209 20.3815 20.3823 18.4202 20.3823 16.0001C20.3823 13.5799 18.4207 11.6178 16.0006 11.6178ZM18.8453 16.0001C18.8453 14.429 17.5717 13.1556 16.0008 13.1556C14.4297 13.1556 13.1563 14.429 13.1563 16.0001C13.1563 17.5709 14.4297 18.8445 16.0008 18.8445C17.5717 18.8445 18.8453 17.5709 18.8453 16.0001Z" fill="fff"/>
</g>
</svg>
