<svg width="151" height="64" viewBox="0 0 151 64" fill="none" xmlns="http://www.w3.org/2000/svg">
<path fill-rule="evenodd" clip-rule="evenodd" d="M96.4231 11.2856V9.85434C96.4231 9.51768 96.2555 9.34908 95.9197 9.34908H92.7618C92.426 9.34908 92.2578 9.51768 92.2578 9.85434V16.0845C92.2578 16.4217 92.426 16.5898 92.7618 16.5898H95.9197C96.2555 16.5898 96.4231 16.4217 96.4231 16.0845V14.6533H99.0268V16.2196C99.0268 17.8024 97.9684 18.863 96.3897 18.863H92.2748C90.7125 18.863 89.6547 17.8024 89.6547 16.2196V9.71979C89.6547 8.13703 90.7125 7.07597 92.2748 7.07597H96.3897C97.9684 7.07597 99.0268 8.13703 99.0268 9.71979V11.2856H96.4231ZM91.3846 3.96088H93.6185L94.3744 5.13947L95.1298 3.96088H97.2969L95.7012 6.40209H92.9803L91.3846 3.96088Z" fill="#1D215F"/>
<path fill-rule="evenodd" clip-rule="evenodd" d="M101.883 7.07599H110.08V9.34904H104.487V11.8243H109.24V14.098H104.487V16.5898H110.08V18.8629H101.883V7.07599Z" fill="#1D215F"/>
<path fill-rule="evenodd" clip-rule="evenodd" d="M121.805 14.4681V16.2195C121.805 17.8023 120.747 18.8634 119.185 18.8634H115.237C113.659 18.8634 112.601 17.8023 112.601 16.2195V15.1584H115.204V16.0844C115.204 16.4216 115.372 16.5902 115.708 16.5902H118.697C119.033 16.5902 119.202 16.4216 119.202 16.0844V14.6032C119.202 14.266 119.033 14.0979 118.697 14.0979H115.221C113.659 14.0979 112.601 13.0368 112.601 11.454V9.71964C112.601 8.13705 113.659 7.07599 115.221 7.07599H119.168C120.747 7.07599 121.805 8.13705 121.805 9.71964V10.7802H119.202V9.8542C119.202 9.51754 119.033 9.34893 118.697 9.34893H115.708C115.372 9.34893 115.204 9.51754 115.204 9.8542V11.3195C115.204 11.6561 115.372 11.8242 115.708 11.8242H119.185C120.747 11.8242 121.805 12.8853 121.805 14.4681" fill="#1D215F"/>
<path fill-rule="evenodd" clip-rule="evenodd" d="M127.265 13.222V18.8629H124.661V7.07599H127.265V12.7337L131.212 7.07599H134.151L130.137 12.7843L134.403 18.8629H131.212L127.265 13.222Z" fill="#1D215F"/>
<path fill-rule="evenodd" clip-rule="evenodd" d="M142.131 18.8631H139.528V14.704L135.296 7.07597H138.403L140.871 12.0771L143.408 7.07597H146.347L142.131 14.704V18.8631ZM139.293 6.40209L140.67 3.96033H143.374L141.358 6.40209H139.293Z" fill="#1D215F"/>
<path fill-rule="evenodd" clip-rule="evenodd" d="M98.858 32.9941V34.7455C98.858 36.3283 97.8003 37.3894 96.2385 37.3894H92.2912C90.7125 37.3894 89.6542 36.3283 89.6542 34.7455V33.6845H92.2578V34.6104C92.2578 34.9476 92.426 35.1162 92.7612 35.1162H95.751C96.0868 35.1162 96.255 34.9476 96.255 34.6104V33.1292C96.255 32.792 96.0868 32.6239 95.751 32.6239H92.2742C90.7125 32.6239 89.6542 31.5629 89.6542 29.9801V28.2457C89.6542 26.6629 90.7125 25.6018 92.2742 25.6018H96.2216C97.8003 25.6018 98.858 26.6629 98.858 28.2457V29.3062H96.255V28.3802C96.255 28.0436 96.0868 27.875 95.751 27.875H92.7612C92.426 27.875 92.2578 28.0436 92.2578 28.3802V29.8455C92.2578 30.1822 92.426 30.3502 92.7612 30.3502H96.2385C97.8003 30.3502 98.858 31.4113 98.858 32.9941" fill="#1D215F"/>
<path fill-rule="evenodd" clip-rule="evenodd" d="M100.708 25.602H110.13V27.8752H106.72V37.389H104.117V27.8752H100.708V25.602Z" fill="#1D215F"/>
<path fill-rule="evenodd" clip-rule="evenodd" d="M118.714 37.3892H114.599C113.037 37.3892 111.979 36.3282 111.979 34.7453V28.2455C111.979 26.6627 113.037 25.6022 114.599 25.6022H118.714C120.293 25.6022 121.351 26.6627 121.351 28.2455V34.7453C121.351 36.3282 120.293 37.3892 118.714 37.3892V37.3892ZM118.748 28.3801C118.748 28.0434 118.579 27.8753 118.243 27.8753H115.086C114.75 27.8753 114.582 28.0434 114.582 28.3801V34.6108C114.582 34.9475 114.75 35.1161 115.086 35.1161H118.243C118.579 35.1161 118.748 34.9475 118.748 34.6108V28.3801Z" fill="#1D215F"/>
<path fill-rule="evenodd" clip-rule="evenodd" d="M124.208 25.602H126.812V35.1159H132.404V37.389H124.208V25.602Z" fill="#1D215F"/>
<path fill-rule="evenodd" clip-rule="evenodd" d="M137.193 30.4011V37.3892H134.589V25.6021H137.025L141.358 32.5902V25.6021H143.961V37.3892H141.526L137.193 30.4011Z" fill="#1D215F"/>
<path fill-rule="evenodd" clip-rule="evenodd" d="M146.818 25.6018H149.422V37.3888H146.818V25.6018ZM146.919 24.9285L148.296 22.4867H151L148.985 24.9285H146.919Z" fill="#1D215F"/>
<path fill-rule="evenodd" clip-rule="evenodd" d="M88.6469 44.1281H98.0693V46.4012H94.6599V55.9151H92.0563V46.4012H88.6469V44.1281Z" fill="#1D215F"/>
<path fill-rule="evenodd" clip-rule="evenodd" d="M99.918 44.1281H108.115V46.4012H102.522V48.8765H107.275V51.1502H102.522V53.6419H108.115V55.9151H99.918V44.1281Z" fill="#1D215F"/>
<path fill-rule="evenodd" clip-rule="evenodd" d="M113.239 48.9271V55.9152H110.635V44.1282H113.071L117.404 51.1163V44.1282H120.007V55.9152H117.572L113.239 48.9271Z" fill="#1D215F"/>
<path fill-rule="evenodd" clip-rule="evenodd" d="M122.864 55.9152H125.468V44.1281H122.864V55.9152Z" fill="#1D215F"/>
<path fill-rule="evenodd" clip-rule="evenodd" d="M137.528 51.5202V53.2716C137.528 54.8544 136.47 55.9155 134.908 55.9155H130.96C129.382 55.9155 128.324 54.8544 128.324 53.2716V52.2105H130.927V53.1365C130.927 53.4737 131.095 53.6423 131.431 53.6423H134.42C134.756 53.6423 134.925 53.4737 134.925 53.1365V51.6553C134.925 51.3181 134.756 51.15 134.42 51.15H130.944C129.382 51.15 128.324 50.0889 128.324 48.5061V46.7717C128.324 45.1889 129.382 44.1279 130.944 44.1279H134.891C136.47 44.1279 137.528 45.1889 137.528 46.7717V47.8323H134.925V46.9063C134.925 46.5696 134.756 46.401 134.42 46.401H131.431C131.095 46.401 130.927 46.5696 130.927 46.9063V48.3716C130.927 48.7082 131.095 48.8763 131.431 48.8763H134.908C136.47 48.8763 137.528 49.9374 137.528 51.5202" fill="#1D215F"/>
<path fill-rule="evenodd" clip-rule="evenodd" d="M43.1279 5.99403C43.1279 9.30464 40.4515 11.9881 37.1494 11.9881C33.8474 11.9881 31.1709 9.30464 31.1709 5.99403C31.1709 2.68342 33.8474 0 37.1494 0C40.4515 0 43.1279 2.68342 43.1279 5.99403" fill="#1D215F"/>
<path fill-rule="evenodd" clip-rule="evenodd" d="M0 34.5582H34.1522V28.5482H0V34.5582Z" fill="#E3003C"/>
<path fill-rule="evenodd" clip-rule="evenodd" d="M14.0786 56.3342H20.073V28.5477H14.0786V56.3342Z" fill="#E3003C"/>
<path fill-rule="evenodd" clip-rule="evenodd" d="M54.2252 56.3342H60.2196V28.5477H54.2252V56.3342Z" fill="#E3003C"/>
<path fill-rule="evenodd" clip-rule="evenodd" d="M40.1465 34.5582H74.2987V28.5482H40.1465V34.5582Z" fill="#E3003C"/>
<path fill-rule="evenodd" clip-rule="evenodd" d="M34.1522 64H40.1466V28.5482H34.1522V64Z" fill="#1D215F"/>
<path fill-rule="evenodd" clip-rule="evenodd" d="M36.9995 31.5531L11.6563 6.14398L15.8951 1.89423L41.2383 27.3034L36.9995 31.5531Z" fill="#1D215F"/>
<path fill-rule="evenodd" clip-rule="evenodd" d="M33.0603 27.3034L58.4036 1.89423L62.6424 6.14398L37.2991 31.5531L33.0603 27.3034Z" fill="#1D215F"/>
</svg>
