<?xml version="1.0" encoding="UTF-8"?><svg id="Vrstva_1" xmlns="http://www.w3.org/2000/svg" xmlns:xlink="http://www.w3.org/1999/xlink" viewBox="0 0 219.32 216.31"><defs><style>.cls-1{clip-path:url(#clippath);}.cls-2{fill:none;}.cls-2,.cls-3,.cls-4{stroke-width:0px;}.cls-5{clip-path:url(#clippath-1);}.cls-3{fill:red;}.cls-4{fill:#034ea2;}</style><clipPath id="clippath"><rect class="cls-2" y="0" width="219.32" height="216.31"/></clipPath><clipPath id="clippath-1"><rect class="cls-2" y="0" width="219.32" height="216.31"/></clipPath></defs><polygon class="cls-4" points="28.32 154.7 26.51 154.7 24.93 156.42 23.48 154.7 21.09 154.7 23.78 157.71 25.56 157.71 28.32 154.7"/><g class="cls-1"><path class="cls-4" d="m19.41,211.12c0,1.56.29,3.13,1.62,4.16.41.35,1.47,1.03,3.48,1.03,1.56,0,5.04-.56,5.04-4.98,0-2.39-.77-3.45-2.48-5.28l-2.62-2.74c-1.47-1.56-2.03-2.18-2.03-3.74,0-.59,0-2.48,2.18-2.48,1.83,0,2.09,1.3,2.15,1.68.06.38.06.59.12,2.56h2.27c0-3.07,0-3.77-.59-4.75-.94-1.53-2.74-1.71-3.8-1.71-4.83,0-4.83,3.71-4.83,4.86,0,1.89.41,3.15,2.39,5.19l2.83,2.89c1.18,1.21,1.92,2.03,1.92,3.68,0,2.27-1.8,2.59-2.62,2.59-2.3,0-2.48-1.94-2.51-2.48-.03-.38-.03-.62-.03-2.8h-2.48v2.3Zm17.83-13.59h3.95v-2.33h-10.46v2.33h3.95v18.48h2.56v-18.48Zm15.71,7.78c0-.56.06-4.3-.12-6.07-.12-1.12-.47-4.36-4.8-4.36-4.72,0-5.13,3.57-5.22,4.63-.09,1.12-.15,5.48-.15,6.81,0,1.86-.03,4.89.21,6.31.15.85.53,2.3,2,3.1.97.53,2.03.59,2.8.59,4.3,0,4.95-2.8,5.1-5.42.09-1.56.18-3.95.18-5.57m-7.63,1.44c0-5.01,0-5.34.06-6.37.06-1.06.15-3.33,2.51-3.33s2.36,2.06,2.39,3.36c.03,1.62.03,3.27.06,4.89.03,1.68-.03,3.8-.15,5.54-.09,1.36-.18,3.3-2.39,3.3-2.74,0-2.39-2.62-2.44-4.63-.03-1.33-.03-1.36-.03-2.77m20.52,6.93h-6.1v-18.48h-2.62v20.81h8.73v-2.33Zm12.41-18.51h-2.51l.35,18.25-4.22-18.25h-3.54v20.84h2.54l-.35-18.04,4.07,18.04h3.65v-20.84Zm5.66.03h-2.56v20.81h2.56v-20.81Zm2.21-5.22h-3.21l-1.56,3.18h1.89l2.89-3.18Zm13.12,7.55h3.95v-2.33h-10.46v2.33h3.95v18.48h2.56v-18.48Zm15.24,16.15h-6.78v-7.61h5.75v-2.36h-5.75v-6.19h6.54v-2.33h-9.14v20.81h9.37v-2.33Zm13-18.51h-2.51l.35,18.25-4.22-18.25h-3.54v20.84h2.54l-.35-18.04,4.07,18.04h3.65v-20.84Zm6.9.03h-2.56v20.81h2.56v-20.81Zm3.04,15.92c0,1.56.29,3.13,1.62,4.16.41.35,1.47,1.03,3.48,1.03,1.56,0,5.04-.56,5.04-4.98,0-2.39-.77-3.45-2.48-5.28l-2.62-2.74c-1.47-1.56-2.03-2.18-2.03-3.74,0-.59,0-2.48,2.18-2.48,1.83,0,2.09,1.3,2.15,1.68.06.38.06.59.12,2.56h2.27c0-3.07,0-3.77-.59-4.75-.94-1.53-2.74-1.71-3.8-1.71-4.84,0-4.84,3.71-4.84,4.86,0,1.89.41,3.15,2.39,5.19l2.83,2.89c1.18,1.21,1.92,2.03,1.92,3.68,0,2.27-1.8,2.59-2.62,2.59-2.3,0-2.48-1.94-2.5-2.48-.03-.38-.03-.62-.03-2.8h-2.48v2.3Z"/><path class="cls-4" d="m27.4,173.31c0,2.48,0,2.95-.12,3.48-.09.38-.35,1.98-2.21,1.98-2.06,0-2.33-1.56-2.42-1.95-.12-.83-.18-5.04-.18-6.31,0-1.59,0-4.75.18-6.25.09-.8.27-2.56,2.48-2.56s2.15,1.71,2.15,3.12v1.56h2.42c.03-1.62.03-2.86-.21-3.86-.53-2.27-2.65-3.01-4.36-3.01-4.27,0-4.8,3.01-4.98,3.92-.15.91-.24,1.56-.24,7.04,0,5.19.12,6.07.21,6.66.32,1.92,1.62,3.8,4.8,3.8,3.74,0,4.42-2.09,4.69-3.3.18-.8.21-1.53.21-4.33h-2.42Zm15.12,5.01h-6.78v-7.61h5.75v-2.36h-5.75v-6.19h6.54v-2.33h-9.14v20.81h9.37v-2.33Zm2.39-2.56c0,1.56.29,3.13,1.62,4.16.41.35,1.47,1.03,3.48,1.03,1.56,0,5.04-.56,5.04-4.98,0-2.39-.77-3.45-2.48-5.27l-2.63-2.74c-1.47-1.56-2.03-2.18-2.03-3.74,0-.59,0-2.48,2.18-2.48,1.83,0,2.09,1.3,2.15,1.68.06.38.06.59.12,2.56h2.27c0-3.06,0-3.77-.59-4.74-.94-1.53-2.74-1.71-3.8-1.71-4.83,0-4.83,3.71-4.83,4.86,0,1.89.41,3.15,2.39,5.19l2.83,2.89c1.18,1.21,1.92,2.03,1.92,3.68,0,2.27-1.8,2.59-2.62,2.59-2.3,0-2.48-1.95-2.51-2.48-.03-.38-.03-.62-.03-2.8h-2.48v2.3Zm19.01-8.08l4.89-7.84h-2.86l-5.36,8.96v-8.96h-2.56v20.81h2.56v-8.14l1.65-2.51,3.71,10.64h2.86l-4.89-12.97Zm12.17,4.8l4.57-12.64h-2.74l-3.09,10.41-3.07-10.41h-2.77l4.42,12.64v8.17h2.68v-8.17Zm2.51-17.86h-3.21l-1.56,3.18h1.89l2.89-3.18Zm16.18,5.22h-2.59l-4.48,20.81h2.68l.71-4.01h4.84l.74,4.01h2.71l-4.6-20.81Zm-3.24,14.56l1.92-10.7,2.03,10.7h-3.95Zm15.68,1.36c0,1.56.29,3.13,1.62,4.16.41.35,1.47,1.03,3.48,1.03,1.56,0,5.04-.56,5.04-4.98,0-2.39-.77-3.45-2.48-5.27l-2.62-2.74c-1.47-1.56-2.03-2.18-2.03-3.74,0-.59,0-2.48,2.18-2.48,1.83,0,2.09,1.3,2.15,1.68.06.38.06.59.12,2.56h2.27c0-3.06,0-3.77-.59-4.74-.94-1.53-2.74-1.71-3.8-1.71-4.83,0-4.83,3.71-4.83,4.86,0,1.89.41,3.15,2.39,5.19l2.83,2.89c1.18,1.21,1.92,2.03,1.92,3.68,0,2.27-1.8,2.59-2.62,2.59-2.3,0-2.48-1.95-2.51-2.48-.03-.38-.03-.62-.03-2.8h-2.48v2.3Zm21.84,2.56h-6.1v-18.48h-2.62v20.81h8.72v-2.33Zm12.59-8.37c0-.56.06-4.3-.12-6.07-.12-1.12-.47-4.36-4.8-4.36-4.72,0-5.13,3.57-5.22,4.63-.09,1.12-.15,5.48-.15,6.81,0,1.86-.03,4.89.21,6.31.15.85.53,2.3,2,3.09.97.53,2.03.59,2.8.59,4.3,0,4.95-2.8,5.1-5.42.09-1.56.18-3.95.18-5.57m-7.63,1.44c0-5.01,0-5.34.06-6.37.06-1.06.15-3.33,2.51-3.33s2.36,2.06,2.39,3.36c.03,1.62.03,3.27.06,4.89.03,1.68-.03,3.8-.15,5.54-.09,1.36-.18,3.3-2.39,3.3-2.74,0-2.39-2.62-2.45-4.63-.03-1.33-.03-1.36-.03-2.77m20.75-11.55h-2.62l-2.89,18.25-2.86-18.25h-2.68l3.89,20.81h3.3l3.86-20.81Zm11.61,18.48h-6.78v-7.61h5.75v-2.36h-5.75v-6.19h6.55v-2.33h-9.14v20.81h9.37v-2.33Zm13-18.51h-2.51l.35,18.25-4.21-18.25h-3.54v20.84h2.53l-.35-18.04,4.07,18.04h3.66v-20.84Zm3.04,15.95c0,1.56.29,3.13,1.62,4.16.41.35,1.47,1.03,3.48,1.03,1.56,0,5.04-.56,5.04-4.98,0-2.39-.77-3.45-2.48-5.27l-2.62-2.74c-1.47-1.56-2.03-2.18-2.03-3.74,0-.59,0-2.48,2.18-2.48,1.83,0,2.09,1.3,2.15,1.68.06.38.06.59.12,2.56h2.27c0-3.06,0-3.77-.59-4.74-.94-1.53-2.74-1.71-3.8-1.71-4.83,0-4.83,3.71-4.83,4.86,0,1.89.41,3.15,2.39,5.19l2.83,2.89c1.18,1.21,1.92,2.03,1.92,3.68,0,2.27-1.8,2.59-2.62,2.59-2.3,0-2.48-1.95-2.51-2.48-.03-.38-.03-.62-.03-2.8h-2.48v2.3Zm19.01-8.08l4.89-7.84h-2.86l-5.36,8.96v-8.96h-2.56v20.81h2.56v-8.14l1.65-2.51,3.71,10.64h2.86l-4.89-12.97Zm12.17,4.8l4.57-12.64h-2.74l-3.1,10.41-3.07-10.41h-2.77l4.42,12.64v8.17h2.68v-8.17Zm2.51-17.86h-3.21l-1.56,3.18h1.89l2.89-3.18Z"/><path class="cls-4" d="m91.89,4.77c-19.95,0-37.01,12.36-43.95,29.84l61.4,61.4c17.48-6.94,29.84-24,29.84-43.95,0-26.12-21.17-47.29-47.29-47.29m23.75,53.5c-5.39,0-9.77-4.37-9.77-9.76s4.37-9.77,9.77-9.77,9.76,4.37,9.76,9.77-4.37,9.76-9.76,9.76"/><path class="cls-3" d="m207.95,116.5l-.34,11.82h2.44c.03-.96.03-2.57,1.86-2.57,2.07,0,2.07,1.95,2.07,3.62,0,.12-.03,4.24-.09,4.83-.03.46-.25,1.98-2.13,1.98-2.29,0-2.26-1.89-2.2-4.24h-2.57c0,.4-.03.74-.03,1.24,0,1.39,0,5.45,4.7,5.45,2.94,0,4.61-1.73,4.89-4.15.09-.93.09-4.11.09-5.26,0-3.15-.43-3.87-.68-4.27-.31-.49-1.21-1.61-3.06-1.61-.65,0-1.83.12-2.66.96l.19-5.41h6v-2.38h-8.48Zm-4.08,19.49h-6.81l4.49-7.52c1.17-1.95,2.04-3.78,2.04-6.56,0-1.82-.28-3.25-1.39-4.42-.59-.62-1.55-1.27-3.25-1.27-1.52,0-2.63.59-3.28,1.27-.9.96-1.11,2.23-1.11,4.08v2.72h2.51v-2.51c0-1.21,0-3.06,1.95-3.06s2.01,1.98,2.01,2.97c0,2.35-.34,3.22-2.2,6.41l-4.52,7.64v2.6h9.56v-2.35Zm-15.47-8.48c0,3.46,0,4.86-.03,5.48-.03,1.76-.09,3.22-2.2,3.22s-2.13-1.58-2.16-3.09c-.03-.93-.03-3.4-.03-4.52,0-4.73,0-5.2.03-6.87.03-1.24.09-3.06,2.23-3.06s2.17,1.61,2.17,5.2v3.65Zm2.75-.12c0-6.81-.03-7.3-.53-8.51-.96-2.38-3.37-2.66-4.42-2.66-.86,0-3.56.19-4.45,2.72-.37,1.08-.46,1.61-.46,8.41s.12,7.49.37,8.38c.62,2.29,2.79,2.88,4.64,2.88,4.24,0,4.58-3.19,4.7-4.18.1-1.02.15-5.82.15-7.05m-12.96,8.6h-6.81l4.49-7.52c1.17-1.95,2.04-3.78,2.04-6.56,0-1.82-.28-3.25-1.39-4.42-.59-.62-1.55-1.27-3.25-1.27-1.52,0-2.63.59-3.28,1.27-.9.96-1.11,2.23-1.11,4.08v2.72h2.51v-2.51c0-1.21,0-3.06,1.95-3.06s2.01,1.98,2.01,2.97c0,2.35-.34,3.22-2.2,6.41l-4.52,7.64v2.6h9.56v-2.35Zm-60.7-19.49l-.34,11.82h2.44c.03-.96.03-2.57,1.86-2.57,2.07,0,2.07,1.95,2.07,3.62,0,.12-.03,4.24-.09,4.83-.03.46-.25,1.98-2.13,1.98-2.29,0-2.26-1.89-2.2-4.24h-2.57c0,.4-.03.74-.03,1.24,0,1.39,0,5.45,4.7,5.45,2.94,0,4.61-1.73,4.89-4.15.09-.93.09-4.11.09-5.26,0-3.15-.43-3.87-.68-4.27-.31-.49-1.21-1.61-3.06-1.61-.65,0-1.82.12-2.66.96l.18-5.41h6v-2.38h-8.48Zm-4.08,19.49h-6.81l4.49-7.52c1.18-1.95,2.04-3.78,2.04-6.56,0-1.82-.28-3.25-1.39-4.42-.59-.62-1.55-1.27-3.25-1.27-1.52,0-2.63.59-3.28,1.27-.9.96-1.11,2.23-1.11,4.08v2.72h2.51v-2.51c0-1.21,0-3.06,1.95-3.06s2.01,1.98,2.01,2.97c0,2.35-.34,3.22-2.2,6.41l-4.52,7.64v2.6h9.56v-2.35Zm-15.59-12.59v2.17c0,1.55-.81,2.38-2.1,2.38s-2.1-.8-2.2-2.04l-.03-1.61c0-.87.03-3.09.09-3.62.18-1.7,1.39-2.07,2.17-2.07.93,0,1.86.53,2.04,2.04.03.25.03,2.66.03,2.75m-6.71,9.19c0,2.29,0,2.54.12,3.06.4,1.92,2.23,2.97,4.39,2.97,1.52,0,4.33-.4,4.67-4.21.06-.96.09-7.12.09-8.51,0-4.92,0-5.48-.09-6-.31-2.13-1.76-3-2.2-3.22-.74-.37-1.61-.46-2.44-.46-1.89,0-3.99.71-4.49,3.13-.28,1.27-.28,3.93-.28,5.91,0,1.36,0,5.04,3.74,5.04,1.8,0,2.66-.87,3.16-1.36,0,.56.03,3.03,0,3.53-.06,2.23-.09,3.74-2.14,3.74s-2.04-1.42-2.04-1.95c-.03-.09-.03-.59,0-1.67h-2.51Zm-4.55-16.09h-2.32c0,2.63-2.26,2.63-4.05,2.63v2.07h3.62v17.14h2.75v-21.84Z"/></g><rect class="cls-3" x="129" y="136.31" width="35.81" height="2.04"/><polygon class="cls-4" points="0 0 0 18.05 19.55 18.05 19.55 101.27 37.6 84.36 37.6 0 0 0"/><g class="cls-5"><path class="cls-4" d="m219.32,48.65s0-.04,0-.07h0c-.03-13.41-4.78-24.86-14.25-34.33C195.56,4.75,184.07,0,170.6,0s-24.96,4.75-34.46,14.26c-.99.99-1.89,2.01-2.78,3.04,4.47,5.24,7.74,11,9.84,17.24,1.43-2.66,3.3-5.16,5.62-7.47,6.05-6.02,13.31-9.02,21.78-9.02s15.73,3.01,21.78,9.02c6.04,6,9.06,13.19,9.07,21.58-.02,8.39-3.04,15.59-9.07,21.59-6.05,6.02-13.31,9.02-21.78,9.02s-15.73-3.01-21.78-9.02c-1.67-1.65-3.08-3.41-4.28-5.25-1.54,6.56-4.3,12.63-8.27,18.18,9.48,9.42,20.93,14.14,34.33,14.14s24.97-4.75,34.46-14.26c9.47-9.47,14.22-20.91,14.25-34.32h0s0-.05,0-.08"/><path class="cls-3" d="m84.91,81.14l-14.26,13.16c6.39,3.22,13.6,5.04,21.25,5.04,3.47,0,6.86-.39,10.12-1.1l-17.11-17.11Z"/><path class="cls-3" d="m63.84,60.08l-18.14-18.14c-.71,3.26-1.1,6.65-1.1,10.12,0,7.61,1.8,14.8,5,21.17l14.24-13.14Z"/></g><polygon class="cls-3" points="68.63 64.87 19.55 110.18 19.55 132.27 80.12 76.35 68.63 64.87"/></svg>