<svg height="64" viewBox="0 0 151 64" width="151" xmlns="http://www.w3.org/2000/svg"><g fill="#fff" fill-rule="evenodd"><path d="m96.4231651 11.2855662v-1.43122919c0-.33666289-.167622-.50526894-.5034137-.50526894h-3.1579759c-.3357917 0-.5039614.16860605-.5039614.50526894v6.23018569c0 .3372121.1681697.5052689.5039614.5052689h3.1579759c.3357917 0 .5034137-.1680568.5034137-.5052689v-1.4312292h2.6036183v1.5663337c0 1.5828099-1.0583191 2.6433255-2.6370331 2.6433255h-4.1149549c-1.5622805 0-2.6200518-1.0605156-2.6200518-2.6433255v-6.49984551c0-1.58275495 1.0577713-2.64381972 2.6200518-2.64381972h4.1149549c1.578714 0 2.6370331 1.06106477 2.6370331 2.64381972v1.56578451zm-5.038519-7.32469708h2.2338639l.7559422 1.17859472.7553944-1.17859472h2.1670343l-1.5956954 2.44121786h-2.7208441z"/><path d="m101.883478 7.07596197h8.196495v2.27305118h-5.593425v2.47526855h4.753672v2.2737103h-4.753672v2.4917447h5.593425v2.273161h-8.196495z"/><path d="m121.804746 14.4680465v1.751416c0 1.5828098-1.057772 2.6438746-2.620052 2.6438746h-3.947333c-1.578714 0-2.636485-1.0610648-2.636485-2.6438746v-1.0610648h2.60307v.9259602c0 .3372121.167622.5058182.503962.5058182h2.989258c.335792 0 .504509-.1686061.504509-.5058182v-1.4812068c0-.3372121-.168717-.505269-.504509-.505269h-3.476238c-1.562281 0-2.620052-1.0610647-2.620052-2.6438746v-1.73439057c0-1.58259019 1.057771-2.64365496 2.620052-2.64365496h3.946785c1.579261 0 2.637033 1.06106477 2.637033 2.64365496v1.06051557h-2.603071v-.92596026c0-.33666289-.168717-.50526893-.504509-.50526893h-2.989258c-.33634 0-.503962.16860604-.503962.50526893v1.46527996c0 .3366629.167622.5047197.503962.5047197h3.476786c1.56228 0 2.620052 1.0610648 2.620052 2.6438746"/><path d="m127.265059 13.2219545v5.6408883h-2.603619v-11.78688083h2.603619v5.65774893l3.946785-5.65774893h2.938862l-4.013615 5.70827583 4.266143 6.078605h-3.19139z"/><path d="m142.131374 18.8631174h-2.603618v-4.1591322l-4.232181-7.62802323h3.107032l2.468863 5.00117393 2.536241-5.00117393h2.93941l-4.215747 7.62802323zm-2.838618-12.46103042 1.377677-2.44176707h2.703863l-2.015846 2.44176707zm-40.4346901 26.59202962v1.751416c0 1.5828098-1.0577713 2.6438746-2.6195041 2.6438746h-3.9473329c-1.578714 0-2.6370331-1.0610648-2.6370331-2.6438746v-1.0610648h2.6036183v.9259602c0 .3372121.1681697.5058182.5034137.5058182h2.9898061c.3357917 0 .5039615-.1686061.5039615-.5058182v-1.4812068c0-.3372121-.1681698-.505269-.5039615-.505269h-3.4767863c-1.5617327 0-2.6200518-1.0610648-2.6200518-2.6438746v-1.7343906c0-1.5828099 1.0583191-2.6438746 2.6200518-2.6438746h3.9473329c1.5787141 0 2.6364854 1.0610647 2.6364854 2.6438746v1.0605156h-2.6030705v-.9259603c0-.3366629-.1681698-.5052689-.5039615-.5052689h-2.9898061c-.335244 0-.5034137.168606-.5034137.5052689v1.46528c0 .3366629.1681697.5047197.5034137.5047197h3.477334c1.5617328 0 2.6195041 1.0610648 2.6195041 2.6438746"/><path d="m100.707933 25.6019771h9.421888v2.2731611h-3.409409v9.5138846h-2.60307v-9.5138846h-3.409409z"/><path d="m118.714147 37.3891875h-4.114955c-1.56228 0-2.620599-1.0610648-2.620599-2.6438746v-6.4998456c0-1.5828098 1.058319-2.6433254 2.620599-2.6433254h4.114955c1.578714 0 2.636486 1.0605156 2.636486 2.6433254v6.4998456c0 1.5828098-1.057772 2.6438746-2.636486 2.6438746zm.033415-9.0091648c0-.3366629-.16817-.5047198-.504509-.5047198h-3.15688c-.33634 0-.503962.1680569-.503962.5047198v6.2307349c0 .3366629.167622.5052689.503962.5052689h3.15688c.336339 0 .504509-.168606.504509-.5052689z"/><path d="m124.208423 25.6019771h2.60307v9.5138846h5.592877v2.2731611h-8.195947z"/><path d="m137.192552 30.4010435v6.9880891h-2.603619v-11.7870456h2.435997l4.332973 6.9880891v-6.9880891h2.60307v11.7870456h-2.434901z"/><path d="m146.818215 25.6017575h2.603619v11.7870456h-2.603619zm.100793-.6733258 1.377129-2.4417671h2.703863l-2.015298 2.4417671z"/><path d="m88.6468207 44.1280472h9.4224359v2.2731611h-3.4094088v9.5138846h-2.6036183v-9.5138846h-3.4094088z"/><path d="m99.9180283 44.1280472h8.1964947v2.2731611h-5.592876v2.4752685h4.753123v2.2737103h-4.753123v2.4917447h5.592876v2.2731611h-8.1964947z"/><path d="m113.238497 48.9271136v6.9880891h-2.603071v-11.7870456h2.435449l4.332973 6.9880891v-6.9880891h2.60307v11.7870456h-2.434901z"/><path d="m122.86416 55.9151478h2.603619v-11.7870456h-2.603619z"/><path d="m137.527796 51.5201867v1.7514159c0 1.5828099-1.057772 2.6438747-2.620052 2.6438747h-3.947333c-1.578714 0-2.636486-1.0610648-2.636486-2.6438747v-1.0610647h2.603071v.9259602c0 .3372121.167622.5058182.503961.5058182h2.989259c.335791 0 .504509-.1686061.504509-.5058182v-1.4812068c0-.3372121-.168718-.505269-.504509-.505269h-3.476239c-1.56228 0-2.620052-1.0610648-2.620052-2.6438746v-1.7343906c0-1.5828099 1.057772-2.6438746 2.620052-2.6438746h3.946785c1.579262 0 2.637034 1.0610647 2.637034 2.6438746v1.0605156h-2.603071v-.9259603c0-.3366629-.168718-.5052689-.504509-.5052689h-2.989259c-.336339 0-.503961.168606-.503961.5052689v1.46528c0 .3366628.167622.5047197.503961.5047197h3.476787c1.56228 0 2.620052 1.0610648 2.620052 2.6438746m-94.3998699-45.52615931c0 3.31060996-2.6764736 5.99402741-5.9785167 5.99402741s-5.9785167-2.68341745-5.9785167-5.99402741 2.6764736-5.99402739 5.9785167-5.99402739 5.9785167 2.68341743 5.9785167 5.99402739"/><path d="m0 34.5581986h34.1521534v-6.0099543h-34.1521534z"/><path d="m14.0786016 56.3341915h5.9944024v-27.7864964h-5.9944024z"/><path d="m54.2251574 56.3341915h5.9944025v-27.7864964h-5.9944025z"/><path d="m40.1465559 34.5581986h34.1521534v-6.0099543h-34.1521534z"/><path d="m34.1521534 64h5.9944025v-35.4517557h-5.9944025z"/><path d="m36.9995357 31.5531116-25.3432358-25.40915114 4.2387541-4.24975114 25.3432358 25.40915118z"/><path d="m33.06031 27.3033605 25.3433453-25.40915118 4.2387541 4.24975114-25.3433453 25.40915114z"/></g></svg>