<?xml version="1.0" encoding="UTF-8"?><svg id="Vrstva_1" xmlns="http://www.w3.org/2000/svg" xmlns:xlink="http://www.w3.org/1999/xlink" viewBox="0 0 263.85 183.23"><defs><style>.cls-1{clip-path:url(#clippath);}.cls-2{fill:none;}.cls-2,.cls-3,.cls-4{stroke-width:0px;}.cls-5{clip-path:url(#clippath-1);}.cls-3{fill:red;}.cls-4{fill:#034ea2;}</style><clipPath id="clippath"><rect class="cls-2" x="22.38" y="22.38" width="219.1" height="138.48"/></clipPath><clipPath id="clippath-1"><rect class="cls-2" x="22.38" y="22.38" width="219.1" height="138.48"/></clipPath></defs><g class="cls-1"><path class="cls-4" d="m114.18,27.14c-19.93,0-36.97,12.35-43.91,29.81l61.34,61.34c17.46-6.94,29.81-23.97,29.81-43.91,0-26.09-21.15-47.24-47.24-47.24m23.73,53.44c-5.39,0-9.75-4.37-9.75-9.75s4.37-9.76,9.75-9.76,9.75,4.37,9.75,9.76-4.37,9.75-9.75,9.75"/><path class="cls-3" d="m230.11,138.76l-.34,11.81h2.44c.03-.96.03-2.56,1.85-2.56,2.07,0,2.07,1.95,2.07,3.62,0,.12-.03,4.23-.09,4.82-.03.46-.25,1.98-2.13,1.98-2.29,0-2.26-1.89-2.19-4.23h-2.57c0,.4-.03.74-.03,1.24,0,1.39,0,5.44,4.7,5.44,2.94,0,4.6-1.73,4.88-4.14.09-.93.09-4.11.09-5.25,0-3.15-.43-3.86-.68-4.26-.31-.49-1.2-1.61-3.06-1.61-.65,0-1.82.12-2.66.96l.19-5.41h6v-2.38h-8.47Zm-4.08,19.47h-6.8l4.48-7.51c1.17-1.95,2.04-3.77,2.04-6.55,0-1.82-.28-3.25-1.39-4.42-.59-.62-1.54-1.27-3.24-1.27-1.51,0-2.63.59-3.28,1.27-.9.96-1.11,2.23-1.11,4.08v2.72h2.5v-2.5c0-1.2,0-3.06,1.95-3.06s2.01,1.98,2.01,2.97c0,2.35-.34,3.21-2.2,6.4l-4.51,7.63v2.6h9.55v-2.35Zm-15.45-8.47c0,3.46,0,4.85-.03,5.47-.03,1.76-.09,3.21-2.19,3.21s-2.13-1.58-2.16-3.09c-.03-.93-.03-3.4-.03-4.51,0-4.73,0-5.19.03-6.86.03-1.24.09-3.06,2.23-3.06s2.16,1.61,2.16,5.19v3.65Zm2.75-.12c0-6.8-.03-7.29-.53-8.5-.96-2.38-3.37-2.66-4.42-2.66-.87,0-3.56.19-4.45,2.72-.37,1.08-.46,1.61-.46,8.41s.12,7.48.37,8.38c.62,2.29,2.78,2.87,4.64,2.87,4.23,0,4.57-3.18,4.7-4.17.09-1.02.15-5.81.15-7.05m-12.95,8.59h-6.8l4.48-7.51c1.17-1.95,2.04-3.77,2.04-6.55,0-1.82-.28-3.25-1.39-4.42-.59-.62-1.55-1.27-3.25-1.27-1.51,0-2.63.59-3.28,1.27-.9.96-1.11,2.23-1.11,4.08v2.72h2.5v-2.5c0-1.2,0-3.06,1.95-3.06s2.01,1.98,2.01,2.97c0,2.35-.34,3.21-2.19,6.4l-4.51,7.63v2.6h9.55v-2.35Zm-60.64-19.47l-.34,11.81h2.44c.03-.96.03-2.56,1.86-2.56,2.07,0,2.07,1.95,2.07,3.62,0,.12-.03,4.23-.09,4.82-.03.46-.25,1.98-2.13,1.98-2.29,0-2.26-1.89-2.19-4.23h-2.56c0,.4-.03.74-.03,1.24,0,1.39,0,5.44,4.7,5.44,2.94,0,4.61-1.73,4.88-4.14.09-.93.09-4.11.09-5.25,0-3.15-.43-3.86-.68-4.26-.31-.49-1.2-1.61-3.06-1.61-.65,0-1.82.12-2.66.96l.18-5.41h6v-2.38h-8.47Zm-4.08,19.47h-6.8l4.48-7.51c1.18-1.95,2.04-3.77,2.04-6.55,0-1.82-.28-3.25-1.39-4.42-.59-.62-1.55-1.27-3.25-1.27-1.51,0-2.63.59-3.28,1.27-.9.96-1.11,2.23-1.11,4.08v2.72h2.5v-2.5c0-1.2,0-3.06,1.95-3.06s2.01,1.98,2.01,2.97c0,2.35-.34,3.21-2.19,6.4l-4.51,7.63v2.6h9.55v-2.35Zm-15.58-12.58v2.16c0,1.55-.8,2.38-2.1,2.38s-2.1-.8-2.19-2.04l-.03-1.61c0-.87.03-3.09.09-3.61.18-1.7,1.39-2.07,2.16-2.07.93,0,1.85.52,2.04,2.04.03.25.03,2.66.03,2.75m-6.71,9.18c0,2.29,0,2.53.12,3.06.4,1.92,2.23,2.97,4.39,2.97,1.51,0,4.33-.4,4.67-4.2.06-.96.09-7.11.09-8.5,0-4.91,0-5.47-.09-6-.31-2.13-1.76-3-2.19-3.21-.74-.37-1.61-.47-2.44-.47-1.89,0-3.99.71-4.48,3.12-.28,1.27-.28,3.92-.28,5.9,0,1.36,0,5.04,3.74,5.04,1.79,0,2.66-.87,3.15-1.36,0,.56.03,3.03,0,3.52-.06,2.22-.09,3.74-2.13,3.74s-2.04-1.42-2.04-1.95c-.03-.09-.03-.59,0-1.67h-2.5Zm-4.54-16.07h-2.32c0,2.63-2.26,2.63-4.05,2.63v2.07h3.62v17.12h2.75v-21.82Z"/></g><rect class="cls-3" x="151.24" y="158.54" width="35.77" height="2.04"/><polygon class="cls-4" points="22.38 22.38 22.38 40.4 41.91 40.4 41.91 123.54 59.93 106.65 59.93 22.38 22.38 22.38"/><g class="cls-5"><path class="cls-4" d="m241.47,70.97s0-.04,0-.07h0c-.04-13.4-4.78-24.83-14.24-34.29-9.5-9.49-20.97-14.24-34.43-14.24s-24.94,4.75-34.43,14.24c-.99.99-1.89,2.01-2.78,3.04,4.46,5.23,7.73,10.99,9.83,17.22,1.43-2.66,3.29-5.15,5.61-7.46,6.05-6.01,13.3-9.01,21.76-9.01s15.71,3.01,21.76,9.01c6.03,5.99,9.05,13.18,9.07,21.56-.02,8.38-3.04,15.57-9.06,21.57-6.05,6.01-13.3,9.01-21.76,9.01s-15.72-3.01-21.76-9.01c-1.66-1.65-3.07-3.41-4.28-5.24-1.54,6.55-4.29,12.62-8.26,18.16,9.47,9.41,20.9,14.12,34.3,14.12s24.94-4.75,34.43-14.24c9.46-9.46,14.2-20.89,14.24-34.29h0s0-.05,0-.08"/><path class="cls-3" d="m107.19,103.43l-14.24,13.15c6.38,3.22,13.59,5.04,21.22,5.04,3.47,0,6.85-.38,10.11-1.09l-17.09-17.09Z"/><path class="cls-3" d="m86.15,82.39l-18.12-18.12c-.71,3.26-1.1,6.64-1.1,10.11,0,7.6,1.8,14.78,5,21.14l14.22-13.13Z"/></g><polygon class="cls-3" points="90.94 87.18 41.91 132.44 41.91 154.51 102.41 98.65 90.94 87.18"/></svg>