<?xml version="1.0" encoding="UTF-8"?><svg id="Vrstva_1" xmlns="http://www.w3.org/2000/svg" xmlns:xlink="http://www.w3.org/1999/xlink" viewBox="0 0 512.32 178.37"><defs><style>.cls-1{clip-path:url(#clippath);}.cls-2{fill:none;}.cls-2,.cls-3,.cls-4{stroke-width:0px;}.cls-5{clip-path:url(#clippath-1);}.cls-6{clip-path:url(#clippath-4);}.cls-7{clip-path:url(#clippath-3);}.cls-8{clip-path:url(#clippath-2);}.cls-9{clip-path:url(#clippath-7);}.cls-10{clip-path:url(#clippath-8);}.cls-11{clip-path:url(#clippath-6);}.cls-12{clip-path:url(#clippath-5);}.cls-13{clip-path:url(#clippath-9);}.cls-14{clip-path:url(#clippath-10);}.cls-3{fill:red;}.cls-4{fill:#034ea2;}</style><clipPath id="clippath"><rect class="cls-2" x="22.38" y="22.38" width="468.11" height="133.08"/></clipPath><clipPath id="clippath-1"><rect class="cls-2" x="22.38" y="22.38" width="468.11" height="133.08"/></clipPath><clipPath id="clippath-2"><rect class="cls-2" x="22.38" y="22.38" width="468.11" height="133.08"/></clipPath><clipPath id="clippath-3"><rect class="cls-2" x="22.38" y="22.38" width="468.11" height="133.08"/></clipPath><clipPath id="clippath-4"><rect class="cls-2" x="22.38" y="22.38" width="468.11" height="133.08"/></clipPath><clipPath id="clippath-5"><rect class="cls-2" x="22.38" y="22.38" width="468.11" height="133.08"/></clipPath><clipPath id="clippath-6"><rect class="cls-2" x="22.38" y="22.38" width="468.11" height="133.08"/></clipPath><clipPath id="clippath-7"><rect class="cls-2" x="22.38" y="22.38" width="468.11" height="133.08"/></clipPath><clipPath id="clippath-8"><rect class="cls-2" x="22.38" y="22.38" width="468.11" height="133.08"/></clipPath><clipPath id="clippath-9"><rect class="cls-2" x="22.38" y="22.38" width="468.11" height="133.08"/></clipPath><clipPath id="clippath-10"><rect class="cls-2" x="22.38" y="22.38" width="468.11" height="133.08"/></clipPath></defs><g class="cls-1"><path class="cls-4" d="m114.84,27.17c-20.08,0-37.24,12.44-44.22,30.03l61.78,61.78c17.59-6.99,30.03-24.15,30.03-44.22,0-26.28-21.3-47.58-47.58-47.58m23.9,53.83c-5.43,0-9.82-4.4-9.82-9.82s4.4-9.82,9.82-9.82,9.82,4.4,9.82,9.82-4.4,9.82-9.82,9.82"/></g><polygon class="cls-4" points="22.38 22.38 22.38 40.53 42.05 40.53 42.05 124.26 60.2 107.26 60.2 22.38 22.38 22.38"/><g class="cls-5"><path class="cls-4" d="m243.04,71.32s0-.04,0-.07h0c-.03-13.49-4.81-25.01-14.34-34.54-9.56-9.56-21.12-14.34-34.68-14.34s-25.12,4.78-34.68,14.34c-.99.99-1.91,2.02-2.8,3.06,4.49,5.27,7.78,11.07,9.9,17.34,1.44-2.68,3.32-5.19,5.65-7.51,6.09-6.05,13.39-9.08,21.91-9.08s15.83,3.03,21.92,9.08c6.07,6.03,9.11,13.27,9.13,21.71-.02,8.44-3.06,15.68-9.13,21.72-6.09,6.05-13.39,9.08-21.92,9.08s-15.83-3.03-21.91-9.08c-1.68-1.66-3.1-3.43-4.31-5.28-1.55,6.6-4.32,12.71-8.32,18.3,9.54,9.47,21.05,14.22,34.54,14.22s25.12-4.78,34.68-14.34c9.53-9.53,14.3-21.04,14.34-34.54h0s0-.05,0-.08"/><path class="cls-3" d="m107.8,104.02l-14.35,13.24c6.43,3.24,13.69,5.08,21.38,5.08,3.5,0,6.9-.39,10.18-1.1l-17.21-17.22Z"/><path class="cls-3" d="m86.61,82.83l-18.25-18.25c-.72,3.28-1.1,6.69-1.1,10.18,0,7.66,1.82,14.89,5.04,21.3l14.32-13.22Z"/></g><polygon class="cls-3" points="42.05 133.23 42.05 155.46 102.99 99.2 91.43 87.64 42.05 133.23"/><g class="cls-8"><path class="cls-3" d="m274.31,45.29h-2.72v-16.92h-3.57v-2.05c1.77,0,4,0,4-2.6h2.29v21.57Z"/><path class="cls-3" d="m285.43,27.82c-.18-1.5-1.1-2.02-2.02-2.02-.77,0-1.96.37-2.14,2.05-.06.52-.09,2.72-.09,3.57l.03,1.59c.09,1.22.86,2.02,2.17,2.02s2.08-.82,2.08-2.35v-2.14c0-.09,0-2.48-.03-2.72m-4.12,11.79c-.03,1.07-.03,1.56,0,1.65,0,.52.06,1.92,2.02,1.92s2.05-1.5,2.11-3.7c.03-.49,0-2.93,0-3.48-.49.49-1.34,1.34-3.12,1.34-3.7,0-3.7-3.64-3.7-4.98,0-1.96,0-4.58.27-5.83.49-2.38,2.57-3.09,4.43-3.09.82,0,1.68.09,2.41.46.43.21,1.86,1.07,2.17,3.18.09.52.09,1.07.09,5.93,0,1.38-.03,7.45-.09,8.4-.34,3.76-3.12,4.15-4.61,4.15-2.14,0-3.94-1.04-4.34-2.93-.12-.52-.12-.76-.12-3.02h2.47Z"/><path class="cls-3" d="m300.82,45.29h-9.44v-2.57l4.46-7.55c1.83-3.15,2.17-4,2.17-6.32,0-.98-.03-2.93-1.98-2.93s-1.93,1.83-1.93,3.02v2.47h-2.47v-2.69c0-1.83.21-3.08,1.1-4.03.64-.67,1.74-1.25,3.24-1.25,1.68,0,2.63.64,3.21,1.25,1.1,1.16,1.37,2.57,1.37,4.37,0,2.75-.86,4.55-2.02,6.48l-4.43,7.42h6.72v2.32Z"/><path class="cls-3" d="m313.22,23.72v2.35h-5.93l-.18,5.35c.82-.82,1.98-.95,2.63-.95,1.83,0,2.72,1.1,3.03,1.59.24.4.67,1.1.67,4.22,0,1.13,0,4.28-.09,5.19-.27,2.38-1.92,4.09-4.82,4.09-4.64,0-4.64-4-4.64-5.38,0-.49.03-.82.03-1.22h2.54c-.06,2.32-.09,4.18,2.17,4.18,1.86,0,2.08-1.5,2.11-1.96.06-.58.09-4.64.09-4.76,0-1.65,0-3.57-2.05-3.57-1.8,0-1.8,1.59-1.83,2.54h-2.41l.34-11.67h8.37Z"/></g><rect class="cls-3" x="315.7" y="43.71" width="45.87" height="1.58"/><g class="cls-7"><path class="cls-3" d="m373.27,45.29h-9.44v-2.57l4.46-7.55c1.83-3.15,2.17-4,2.17-6.32,0-.98-.03-2.93-1.98-2.93s-1.93,1.83-1.93,3.02v2.47h-2.47v-2.69c0-1.83.21-3.08,1.1-4.03.64-.67,1.74-1.25,3.24-1.25,1.68,0,2.63.64,3.2,1.25,1.1,1.16,1.38,2.57,1.38,4.37,0,2.75-.86,4.55-2.02,6.48l-4.43,7.42h6.72v2.32Z"/><path class="cls-3" d="m383.35,30.99c0-3.54,0-5.13-2.14-5.13s-2.17,1.8-2.2,3.03c-.03,1.65-.03,2.11-.03,6.78,0,1.1,0,3.54.03,4.46.03,1.5.09,3.06,2.14,3.06s2.14-1.44,2.17-3.18c.03-.61.03-1.99.03-5.41v-3.6Zm2.57,10.45c-.12.98-.46,4.12-4.64,4.12-1.83,0-3.97-.58-4.58-2.84-.25-.89-.37-1.8-.37-8.28s.09-7.24.46-8.31c.89-2.5,3.54-2.69,4.4-2.69,1.04,0,3.42.27,4.37,2.63.49,1.19.52,1.68.52,8.4,0,1.22-.06,5.96-.15,6.96"/><path class="cls-3" d="m398.62,45.29h-9.44v-2.57l4.46-7.55c1.83-3.15,2.17-4,2.17-6.32,0-.98-.03-2.93-1.98-2.93s-1.93,1.83-1.93,3.02v2.47h-2.47v-2.69c0-1.83.21-3.08,1.1-4.03.64-.67,1.74-1.25,3.24-1.25,1.68,0,2.63.64,3.21,1.25,1.1,1.16,1.37,2.57,1.37,4.37,0,2.75-.86,4.55-2.02,6.48l-4.43,7.42h6.72v2.32Z"/><path class="cls-3" d="m410.99,23.72v2.35h-5.93l-.18,5.35c.82-.82,1.98-.95,2.63-.95,1.83,0,2.72,1.1,3.02,1.59.25.4.67,1.1.67,4.22,0,1.13,0,4.28-.09,5.19-.27,2.38-1.92,4.09-4.83,4.09-4.64,0-4.64-4-4.64-5.38,0-.49.03-.82.03-1.22h2.54c-.06,2.32-.09,4.18,2.17,4.18,1.86,0,2.08-1.5,2.11-1.96.06-.58.09-4.64.09-4.76,0-1.65,0-3.57-2.05-3.57-1.8,0-1.8,1.59-1.83,2.54h-2.41l.34-11.67h8.37Z"/><path class="cls-4" d="m278.49,74.34c0,2.9-.03,3.66-.21,4.49-.27,1.25-.98,3.42-4.86,3.42-3.3,0-4.64-1.96-4.98-3.94-.09-.61-.22-1.53-.22-6.9,0-5.68.09-6.35.25-7.3.18-.95.73-4.06,5.16-4.06,1.77,0,3.97.76,4.52,3.12.24,1.04.24,2.32.21,4h-2.51v-1.62c0-1.47-.03-3.24-2.23-3.24s-2.47,1.83-2.56,2.66c-.18,1.56-.18,4.83-.18,6.48,0,1.31.06,5.68.18,6.54.09.4.37,2.02,2.5,2.02,1.93,0,2.2-1.65,2.29-2.05.12-.55.12-1.04.12-3.6h2.5Z"/></g><polygon class="cls-4" points="292.73 81.94 283.01 81.94 283.01 60.38 292.48 60.38 292.48 62.79 285.7 62.79 285.7 69.21 291.66 69.21 291.66 71.65 285.7 71.65 285.7 79.53 292.73 79.53 292.73 81.94"/><g class="cls-6"><path class="cls-4" d="m296.24,74.49h2.57c0,2.26,0,2.5.03,2.9.03.55.21,2.57,2.6,2.57.85,0,2.72-.34,2.72-2.69,0-1.71-.76-2.57-1.98-3.82l-2.93-2.99c-2.05-2.11-2.48-3.42-2.48-5.38,0-1.19,0-5.04,5.01-5.04,1.1,0,2.96.18,3.94,1.77.61,1.01.61,1.74.61,4.92h-2.35c-.06-2.05-.06-2.26-.12-2.66-.06-.4-.34-1.74-2.23-1.74-2.26,0-2.26,1.96-2.26,2.57,0,1.62.58,2.26,2.11,3.88l2.72,2.84c1.77,1.89,2.57,2.99,2.57,5.47,0,4.58-3.6,5.16-5.22,5.16-2.08,0-3.18-.7-3.6-1.07-1.37-1.07-1.68-2.69-1.68-4.31v-2.38Z"/></g><polygon class="cls-4" points="322.05 81.94 319.09 81.94 315.24 70.92 313.53 73.51 313.53 81.94 310.87 81.94 310.87 60.38 313.53 60.38 313.53 69.66 319.09 60.38 322.05 60.38 316.98 68.51 322.05 81.94"/><path class="cls-4" d="m330.24,58.27h-1.95l1.62-3.3h3.33l-2.99,3.3Zm.4,23.67h-2.78v-8.46l-4.58-13.1h2.87l3.18,10.78,3.21-10.78h2.84l-4.73,13.1v8.46Z"/><path class="cls-4" d="m352.85,75.47l-2.11-11.09-1.98,11.09h4.09Zm4.03,6.48h-2.81l-.76-4.15h-5.01l-.73,4.15h-2.78l4.64-21.57h2.69l4.77,21.57Z"/><g class="cls-12"><path class="cls-4" d="m367.11,74.49h2.57c0,2.26,0,2.5.03,2.9.03.55.21,2.57,2.6,2.57.86,0,2.72-.34,2.72-2.69,0-1.71-.76-2.57-1.99-3.82l-2.93-2.99c-2.05-2.11-2.47-3.42-2.47-5.38,0-1.19,0-5.04,5.01-5.04,1.1,0,2.96.18,3.94,1.77.61,1.01.61,1.74.61,4.92h-2.35c-.06-2.05-.06-2.26-.12-2.66-.06-.4-.34-1.74-2.23-1.74-2.26,0-2.26,1.96-2.26,2.57,0,1.62.58,2.26,2.11,3.88l2.72,2.84c1.77,1.89,2.57,2.99,2.57,5.47,0,4.58-3.61,5.16-5.22,5.16-2.08,0-3.18-.7-3.61-1.07-1.37-1.07-1.68-2.69-1.68-4.31v-2.38Z"/></g><polygon class="cls-4" points="390.78 81.94 381.74 81.94 381.74 60.38 384.46 60.38 384.46 79.53 390.78 79.53 390.78 81.94"/><g class="cls-11"><path class="cls-4" d="m397.02,75.22c.06,2.08-.31,4.8,2.54,4.8,2.29,0,2.38-2.02,2.47-3.42.12-1.8.18-4,.15-5.74-.03-1.68-.03-3.39-.06-5.07-.03-1.34-.06-3.48-2.48-3.48s-2.53,2.35-2.59,3.45c-.06,1.07-.06,1.41-.06,6.6,0,1.47,0,1.5.03,2.87m7.7,1.41c-.15,2.72-.82,5.62-5.29,5.62-.79,0-1.89-.06-2.9-.61-1.53-.82-1.92-2.32-2.08-3.21-.25-1.47-.21-4.61-.21-6.54,0-1.37.06-5.89.15-7.05.09-1.1.52-4.8,5.41-4.8,4.49,0,4.86,3.36,4.98,4.52.18,1.83.12,5.71.12,6.29,0,1.68-.09,4.15-.18,5.77"/></g><polygon class="cls-4" points="415.53 81.94 412.11 81.94 408.07 60.38 410.85 60.38 413.82 79.29 416.81 60.38 419.53 60.38 415.53 81.94"/><polygon class="cls-4" points="432.63 81.94 422.92 81.94 422.92 60.38 432.39 60.38 432.39 62.79 425.61 62.79 425.61 69.21 431.56 69.21 431.56 71.65 425.61 71.65 425.61 79.53 432.63 79.53 432.63 81.94"/><polygon class="cls-4" points="447.14 81.94 443.36 81.94 439.14 63.25 439.51 81.94 436.88 81.94 436.88 60.35 440.55 60.35 444.91 79.26 444.55 60.35 447.14 60.35 447.14 81.94"/><g class="cls-9"><path class="cls-4" d="m451.33,74.49h2.57c0,2.26,0,2.5.03,2.9.03.55.21,2.57,2.6,2.57.85,0,2.72-.34,2.72-2.69,0-1.71-.76-2.57-1.98-3.82l-2.93-2.99c-2.05-2.11-2.47-3.42-2.47-5.38,0-1.19,0-5.04,5.01-5.04,1.1,0,2.96.18,3.94,1.77.61,1.01.61,1.74.61,4.92h-2.35c-.06-2.05-.06-2.26-.12-2.66-.06-.4-.34-1.74-2.23-1.74-2.26,0-2.26,1.96-2.26,2.57,0,1.62.58,2.26,2.11,3.88l2.72,2.84c1.77,1.89,2.57,2.99,2.57,5.47,0,4.58-3.6,5.16-5.22,5.16-2.08,0-3.18-.7-3.6-1.07-1.37-1.07-1.68-2.69-1.68-4.31v-2.38Z"/></g><polygon class="cls-4" points="477.14 81.94 474.18 81.94 470.33 70.92 468.62 73.51 468.62 81.94 465.96 81.94 465.96 60.38 468.62 60.38 468.62 69.66 474.18 60.38 477.14 60.38 472.07 68.51 477.14 81.94"/><path class="cls-4" d="m487.65,60.38l-3.21,10.78-3.18-10.78h-2.87l4.58,13.1v8.46h2.78v-8.46l4.73-13.1h-2.84Zm-2.63-5.41l-1.62,3.3h1.96l2.99-3.3h-3.33Z"/><g class="cls-10"><path class="cls-4" d="m267.71,111.15h2.57c0,2.26,0,2.5.03,2.9.03.55.21,2.57,2.6,2.57.86,0,2.72-.34,2.72-2.69,0-1.71-.76-2.57-1.99-3.82l-2.93-2.99c-2.05-2.11-2.47-3.42-2.47-5.38,0-1.19,0-5.04,5.01-5.04,1.1,0,2.96.18,3.94,1.77.61,1.01.61,1.74.61,4.92h-2.35c-.06-2.05-.06-2.26-.12-2.66-.06-.4-.34-1.74-2.23-1.74-2.26,0-2.26,1.96-2.26,2.57,0,1.62.58,2.26,2.11,3.88l2.72,2.84c1.77,1.89,2.57,2.99,2.57,5.47,0,4.58-3.61,5.16-5.22,5.16-2.08,0-3.18-.7-3.61-1.07-1.37-1.07-1.68-2.69-1.68-4.31v-2.38Z"/></g><polygon class="cls-4" points="287.23 118.6 284.57 118.6 284.57 99.45 280.48 99.45 280.48 97.04 291.32 97.04 291.32 99.45 287.23 99.45 287.23 118.6"/><g class="cls-13"><path class="cls-4" d="m296.7,111.88c.06,2.08-.31,4.8,2.54,4.8,2.29,0,2.38-2.02,2.47-3.42.12-1.8.18-4,.15-5.74-.03-1.68-.03-3.39-.06-5.07-.03-1.34-.06-3.48-2.48-3.48s-2.53,2.35-2.59,3.45c-.06,1.07-.06,1.41-.06,6.6,0,1.47,0,1.5.03,2.87m7.7,1.41c-.15,2.72-.82,5.62-5.28,5.62-.8,0-1.89-.06-2.9-.61-1.53-.82-1.93-2.32-2.08-3.21-.25-1.47-.22-4.61-.22-6.54,0-1.37.06-5.89.15-7.06.09-1.1.52-4.8,5.41-4.8,4.49,0,4.86,3.36,4.98,4.52.18,1.83.12,5.71.12,6.29,0,1.68-.09,4.15-.18,5.77"/></g><polygon class="cls-4" points="318.97 118.6 309.93 118.6 309.93 97.04 312.65 97.04 312.65 116.19 318.97 116.19 318.97 118.6"/><polygon class="cls-4" points="332.9 118.6 329.11 118.6 324.89 99.91 325.26 118.6 322.63 118.6 322.63 97.01 326.3 97.01 330.67 115.92 330.3 97.01 332.9 97.01 332.9 118.6"/><path class="cls-4" d="m339.8,118.6h-2.66v-21.57h2.66v21.57Zm-.7-23.67h-1.96l1.62-3.3h3.33l-2.99,3.3Z"/><polygon class="cls-4" points="357.79 118.6 355.14 118.6 355.14 99.45 351.04 99.45 351.04 97.04 361.89 97.04 361.89 99.45 357.79 99.45 357.79 118.6"/><polygon class="cls-4" points="374.65 118.6 364.94 118.6 364.94 97.04 374.41 97.04 374.41 99.45 367.63 99.45 367.63 105.87 373.59 105.87 373.59 108.31 367.63 108.31 367.63 116.19 374.65 116.19 374.65 118.6"/><polygon class="cls-4" points="389.17 118.6 385.38 118.6 381.16 99.91 381.53 118.6 378.9 118.6 378.9 97.01 382.57 97.01 386.94 115.92 386.57 97.01 389.17 97.01 389.17 118.6"/><rect class="cls-4" x="394.73" y="97.04" width="2.66" height="21.57"/><g class="cls-14"><path class="cls-4" d="m401.57,111.15h2.57c0,2.26,0,2.5.03,2.9.03.55.21,2.57,2.6,2.57.86,0,2.72-.34,2.72-2.69,0-1.71-.76-2.57-1.99-3.82l-2.93-2.99c-2.05-2.11-2.47-3.42-2.47-5.38,0-1.19,0-5.04,5.01-5.04,1.1,0,2.96.18,3.94,1.77.61,1.01.61,1.74.61,4.92h-2.35c-.06-2.05-.06-2.26-.12-2.66-.06-.4-.34-1.74-2.23-1.74-2.26,0-2.26,1.96-2.26,2.57,0,1.62.58,2.26,2.11,3.88l2.72,2.84c1.77,1.89,2.57,2.99,2.57,5.47,0,4.58-3.61,5.16-5.22,5.16-2.08,0-3.18-.7-3.61-1.07-1.37-1.07-1.68-2.69-1.68-4.31v-2.38Z"/></g><polygon class="cls-4" points="277.15 55 275.25 55 273.59 56.89 272.07 55 269.58 55 272.39 58.3 274.25 58.3 277.15 55"/></svg>