<svg width="24" height="24" viewBox="0 0 24 24" fill="none" xmlns="http://www.w3.org/2000/svg">
<path fill-rule="evenodd" clip-rule="evenodd" d="M12 24C18.6274 24 24 18.6274 24 12C24 5.37258 18.6274 0 12 0C5.37258 0 0 5.37258 0 12C0 18.6274 5.37258 24 12 24ZM11.3321 7.75192C10.8718 7.44507 10.2799 7.41646 9.79221 7.67749C9.30447 7.93852 9 8.44681 9 9V15C9 15.5532 9.30447 16.0616 9.79221 16.3226C10.2799 16.5836 10.8718 16.5549 11.3321 16.2481L15.832 13.2481C16.2493 12.9699 16.5 12.5016 16.5 12C16.5 11.4985 16.2493 11.0301 15.832 10.7519L11.3321 7.75192Z" fill="#9B9B9F"/>
</svg>
