<svg width="64" height="64" viewBox="0 0 64 64" fill="none" xmlns="http://www.w3.org/2000/svg">
<path fill-rule="evenodd" clip-rule="evenodd" d="M32 64C49.6732 64 64 49.6732 64 32C64 14.3269 49.6732 0 32 0C14.3269 0 0 14.3269 0 32C0 49.6732 14.3269 64 32 64Z" fill="#E3003C"/>
<path fill-rule="evenodd" clip-rule="evenodd" d="M30.2188 20.6718C28.9914 19.8535 27.4132 19.7772 26.1126 20.4733C24.8119 21.1694 24 22.5248 24 24V40C24 41.4752 24.8119 42.8308 26.1126 43.5268C27.4132 44.2228 28.9914 44.1464 30.2188 43.3284L42.2188 35.3284C43.3316 34.5864 44 33.3376 44 32C44 30.6626 43.3316 29.4137 42.2188 28.6718L30.2188 20.6718Z" fill="white"/>
</svg>
