<?xml version="1.0" encoding="UTF-8"?>
<svg width="135px" height="64px" viewBox="0 0 135 64" version="1.1" xmlns="http://www.w3.org/2000/svg" xmlns:xlink="http://www.w3.org/1999/xlink">
    <title>pptv_logo</title>
    <g id="9.-TV" stroke="none" stroke-width="1" fill="none" fill-rule="evenodd">
        <g id="1.-TV-samostatná-HP" transform="translate(-308.000000, -19.000000)" fill="#FFFFFF">
            <g id="pptv_logo" transform="translate(308.000000, 19.000000)">
                <path d="M92.655,19 L92.655,15.039 L96.497,15.039 C98.095,15.039 99.166,13.968 99.166,12.37 L99.166,9.769 C99.166,8.171 98.095,7.1 96.497,7.1 L90.02,7.1 L90.02,19 L92.655,19 Z M96.021,12.744 L92.655,12.744 L92.655,9.395 L96.021,9.395 C96.361,9.395 96.531,9.565 96.531,9.905 L96.531,12.234 C96.531,12.574 96.361,12.744 96.021,12.744 Z M103.331,19 L103.331,7.1 L100.696,7.1 L100.696,19 L103.331,19 Z M108.006,19 L108.006,11.945 L112.392,19 L114.857,19 L114.857,7.1 L112.222,7.1 L112.222,14.155 L107.836,7.1 L105.371,7.1 L105.371,19 L108.006,19 Z M122.014,19 C122.881,19 123.612,18.677 124.071,18.116 L124.445,19 L126.383,19 L126.383,12.404 L121.232,12.404 L121.232,14.699 L123.748,14.699 L123.748,16.195 C123.748,16.535 123.578,16.705 123.238,16.705 L120.042,16.705 C119.702,16.705 119.532,16.535 119.532,16.195 L119.532,9.905 C119.532,9.565 119.702,9.395 120.042,9.395 L123.238,9.395 C123.578,9.395 123.748,9.565 123.748,9.905 L123.748,11.01 L126.383,11.01 L126.383,9.769 C126.383,8.171 125.312,7.1 123.714,7.1 L119.549,7.1 C117.968,7.1 116.897,8.171 116.897,9.769 L116.897,16.331 C116.897,17.929 117.968,19 119.549,19 L122.014,19 Z M92.655,37.5 L92.655,33.539 L96.497,33.539 C98.095,33.539 99.166,32.468 99.166,30.87 L99.166,28.269 C99.166,26.671 98.095,25.6 96.497,25.6 L90.02,25.6 L90.02,37.5 L92.655,37.5 Z M96.021,31.244 L92.655,31.244 L92.655,27.895 L96.021,27.895 C96.361,27.895 96.531,28.065 96.531,28.405 L96.531,30.734 C96.531,31.074 96.361,31.244 96.021,31.244 Z M107.513,37.5 C109.111,37.5 110.182,36.429 110.182,34.831 L110.182,28.269 C110.182,26.671 109.111,25.6 107.513,25.6 L103.348,25.6 C101.767,25.6 100.696,26.671 100.696,28.269 L100.696,34.831 C100.696,36.429 101.767,37.5 103.348,37.5 L107.513,37.5 Z M107.037,35.205 L103.841,35.205 C103.501,35.205 103.331,35.035 103.331,34.695 L103.331,28.405 C103.331,28.065 103.501,27.895 103.841,27.895 L107.037,27.895 C107.377,27.895 107.547,28.065 107.547,28.405 L107.547,34.695 C107.547,35.035 107.377,35.205 107.037,35.205 Z M114.857,37.5 L114.857,30.445 L119.243,37.5 L121.708,37.5 L121.708,25.6 L119.073,25.6 L119.073,32.655 L114.687,25.6 L112.222,25.6 L112.222,37.5 L114.857,37.5 Z M128.865,37.5 C129.732,37.5 130.463,37.177 130.922,36.616 L131.296,37.5 L133.234,37.5 L133.234,30.904 L128.083,30.904 L128.083,33.199 L130.599,33.199 L130.599,34.695 C130.599,35.035 130.429,35.205 130.089,35.205 L126.893,35.205 C126.553,35.205 126.383,35.035 126.383,34.695 L126.383,28.405 C126.383,28.065 126.553,27.895 126.893,27.895 L130.089,27.895 C130.429,27.895 130.599,28.065 130.599,28.405 L130.599,29.51 L133.234,29.51 L133.234,28.269 C133.234,26.671 132.163,25.6 130.565,25.6 L126.4,25.6 C124.819,25.6 123.748,26.671 123.748,28.269 L123.748,34.831 C123.748,36.429 124.819,37.5 126.4,37.5 L128.865,37.5 Z M95.086,56 L95.086,46.395 L98.537,46.395 L98.537,44.1 L89,44.1 L89,46.395 L92.451,46.395 L92.451,56 L95.086,56 Z M105.49,56 L109.383,44.1 L106.697,44.1 L103.994,52.719 L101.308,44.1 L98.537,44.1 L102.43,56 L105.49,56 Z" id="PINGPONGTV" fill-rule="nonzero"></path>
                <g id="logo">
                    <path d="M43.1279261,5.99402739 C43.1279261,9.30463735 40.4514525,11.9880548 37.1494094,11.9880548 C33.8473663,11.9880548 31.1708927,9.30463735 31.1708927,5.99402739 C31.1708927,2.68341743 33.8473663,0 37.1494094,0 C40.4514525,0 43.1279261,2.68341743 43.1279261,5.99402739" id="Fill-17"></path>
                    <polygon id="Fill-18" points="0 34.5581986 35 34.5581986 35 28.5482443 0 28.5482443"></polygon>
                    <polygon id="Fill-19" points="14.0786016 56.3341915 20.073004 56.3341915 20.073004 28.5476951 14.0786016 28.5476951"></polygon>
                    <polygon id="Fill-20" points="54.2251574 56.3341915 60.2195599 56.3341915 60.2195599 28.5476951 54.2251574 28.5476951"></polygon>
                    <polygon id="Fill-21" points="39.2987093 34.5581986 74.2987093 34.5581986 74.2987093 28.5482443 39.2987093 28.5482443"></polygon>
                    <polygon id="Fill-22" points="34.1521534 64 40.1465559 64 40.1465559 28.5482443 34.1521534 28.5482443"></polygon>
                    <polygon id="Fill-23" points="36.9995357 31.5531116 11.6562999 6.14396046 15.895054 1.89420932 41.2382898 27.3033605"></polygon>
                    <polygon id="Fill-24" points="33.06031 27.3033605 58.4036553 1.89420932 62.6424094 6.14396046 37.2990641 31.5531116"></polygon>
                </g>
            </g>
        </g>
    </g>
</svg>