<?xml version="1.0" encoding="utf-8"?>
<!-- Generator: Adobe Illustrator 25.4.1, SVG Export Plug-In . SVG Version: 6.00 Build 0)  -->
<svg version="1.1" id="Vrstva_1" xmlns="http://www.w3.org/2000/svg" xmlns:xlink="http://www.w3.org/1999/xlink" x="0px" y="0px"
	 viewBox="0 0 595.28 147.72" style="enable-background:new 0 0 595.28 147.72;" xml:space="preserve">
<style type="text/css">
	.st0{fill:#FFFFFF;}
</style>
<polygon class="st0" points="518.1,95.61 529.16,95.61 543.24,52.58 533.53,52.58 523.76,83.75 514.04,52.58 504.02,52.58 "/>
<polygon class="st0" points="467.54,60.88 480.02,60.88 480.02,95.61 489.54,95.61 489.54,60.88 502.02,60.88 502.02,52.58 
	467.54,52.58 "/>
<path class="st0" d="M450.02,71.76H431.4v8.3h9.1v5.41c0,1.23-0.62,1.84-1.84,1.84H427.1c-1.23,0-1.84-0.62-1.84-1.84V62.73
	c0-1.23,0.62-1.84,1.84-1.84h11.56c1.23,0,1.84,0.61,1.84,1.84v4h9.53v-4.49c0-5.78-3.87-9.65-9.65-9.65h-15.06
	c-5.72,0-9.59,3.87-9.59,9.65v23.73c0,5.78,3.87,9.65,9.59,9.65h8.91c3.13,0,5.78-1.17,7.44-3.2l1.35,3.2h7L450.02,71.76
	L450.02,71.76z"/>
<polygon class="st0" points="400.43,95.61 409.34,95.61 409.34,52.58 399.81,52.58 399.81,78.09 383.95,52.58 375.04,52.58 
	375.04,95.61 384.57,95.61 384.57,70.1 "/>
<path class="st0" d="M359.02,52.58h-15.06c-5.72,0-9.59,3.87-9.59,9.65v23.73c0,5.78,3.87,9.65,9.59,9.65h15.06
	c5.78,0,9.65-3.87,9.65-9.65V62.23C368.66,56.45,364.79,52.58,359.02,52.58z M359.14,85.47c0,1.23-0.62,1.84-1.84,1.84h-11.56
	c-1.23,0-1.84-0.62-1.84-1.84V62.73c0-1.23,0.61-1.84,1.84-1.84h11.56c1.23,0,1.84,0.61,1.84,1.84V85.47z"/>
<path class="st0" d="M320.18,52.58h-23.42v43.03h9.53V81.29h13.89c5.78,0,9.65-3.87,9.65-9.65v-9.4
	C329.83,56.45,325.96,52.58,320.18,52.58z M320.31,71.15c0,1.23-0.62,1.84-1.84,1.84H306.3V60.88h12.17c1.23,0,1.84,0.61,1.84,1.84
	V71.15z"/>
<rect x="276.91" y="70.22" class="st0" width="14.32" height="7.69"/>
<path class="st0" d="M271.37,71.76h-18.62v8.3h9.1v5.41c0,1.23-0.62,1.84-1.84,1.84h-11.56c-1.23,0-1.84-0.62-1.84-1.84V62.73
	c0-1.23,0.61-1.84,1.84-1.84H260c1.23,0,1.84,0.61,1.84,1.84v4h9.53v-4.49c0-5.78-3.87-9.65-9.65-9.65h-15.06
	c-5.72,0-9.59,3.87-9.59,9.65v23.73c0,5.78,3.87,9.65,9.59,9.65h8.91c3.13,0,5.78-1.17,7.44-3.2l1.35,3.2h7.01L271.37,71.76
	L271.37,71.76z"/>
<polygon class="st0" points="221.78,95.61 230.7,95.61 230.7,52.58 221.17,52.58 221.17,78.09 205.31,52.58 196.39,52.58 
	196.39,95.61 205.92,95.61 205.92,70.1 "/>
<rect x="179.49" y="52.58" class="st0" width="9.53" height="43.03"/>
<path class="st0" d="M165.31,52.58h-23.42v43.03h9.53V81.29h13.89c5.78,0,9.65-3.87,9.65-9.65v-9.4
	C174.96,56.45,171.09,52.58,165.31,52.58z M165.43,71.15c0,1.23-0.62,1.84-1.84,1.84h-12.17V60.88h12.17c1.23,0,1.84,0.61,1.84,1.84
	V71.15z"/>
<path class="st0" d="M82.28,107.73c18.57,0,33.63-15.05,33.63-33.63c0-18.57-15.05-33.62-33.63-33.62S48.65,55.53,48.65,74.09
	C48.65,92.67,63.71,107.73,82.28,107.73"/>
</svg>
