<svg height="20" viewBox="0 0 20 20" width="20" xmlns="http://www.w3.org/2000/svg"><path d="m7.50386.13175926c.30743-.17567901.68484-.17567901.99224 0l1.75 1.00000004c.4796.27401001.6462.88486003.3721 1.36438005-.274.47952002-.8848.64611003-1.3643.37210002l-1.2539-.71649003-1.25386.71649003c-.47952.27401001-1.09037.10742-1.36438-.37210002s-.10742-1.09037004.3721-1.36438005zm-3.88562 3.37210014c.27401.47952002.10742 1.09037004-.3721 1.36438005l-.23058.13176001.23058.13176c.47952.27401002.64611.88486004.3721 1.36438006s-.88486.64611003-1.36438.37210002l-.25386-.14506001v.27682001c0 .55228002-.44772 1.00000004-1 1.00000004s-1-.44772002-1-1.00000004v-2.00000008c0-.24999001.09173-.47855002.24336-.65386003.03466-.04011.07262-.0776.11363-.11203.05055-.04248001.10537-.08006001.16372-.11198001l1.73315-.99037004c.47952-.27401001 1.09037-.10742 1.36438.37210002zm8.76356 0c.274-.47952002.8848-.64611003 1.3643-.37210002l1.7332.99036004c.0583.03193.1132.0695.1637.11199001.2183.18344.357.45847002.357.76589003v2.00000008c0 .55228002-.4477 1.00000004-1 1.00000004s-1-.44772002-1-1.00000004v-.27682001l-.2539.14506001c-.4795.27401001-1.0903.10742-1.3643-.37210002-.2741-.47952002-.1075-1.09037004.3721-1.36438006l.2305-.13176-.2305-.13176001c-.4796-.27401001-.6462-.88486003-.3721-1.36438005zm-7.00004 4.00000016c.27401-.47952002.88486-.64611002 1.36438-.37210001l1.25386.71649003 1.2539-.71649003c.4795-.27401001 1.0903-.10742001 1.3643.37210001.2741.47952002.1075 1.09037005-.3721 1.36438006l-1.2461.71206003v1.41970005c0 .5523-.4477 1-1 1-.55228 0-1-.4477-1-1v-1.41970005l-1.24614-.71206003c-.47952-.27401001-.64611-.88486004-.3721-1.36438006zm-4.38176 2.49614011c.55228 0 1 .44770003 1 1.00000003v1.4197001l1.24614.7121c.47952.274.64611.8848.3721 1.3643001-.27401.4796-.88486.6462-1.36438.3721l-1.75-1.0000001c-.31157-.178-.50386-.5093-.50386-.8682001v-2c0-.5523.44772-1.00000003 1-1.00000003zm14 0c.5523 0 1 .44770003 1 1.00000003v2c0 .3589001-.1923.6902001-.5039.8682001l-1.75 1.0000001c-.4795.2741-1.0903.1075-1.3643-.3721-.2741-.4795001-.1075-1.0903001.3721-1.3643001l1.2461-.7121v-1.4197001c0-.5523.4477-1.00000003 1-1.00000003zm-9.61824 5.50390023c.27401-.4796.88486-.6462 1.36438-.3721l.25386.145v-.2768001c0-.5522999.44772-1 1-1 .5523 0 1 .4477001 1 1v.2768001l.2539-.145c.4795-.2741 1.0903-.1075 1.3643.3721.2741.4795.1075 1.0903-.3721 1.3643001l-1.7348.9914c-.1496.0892-.3245.1403998-.5113.1403998-.18684 0-.36172-.0511998-.51134-.1403998l-1.7348-.9914c-.47952-.2740001-.64611-.8848001-.3721-1.3643001z" fill="#e3003c" fill-rule="evenodd" transform="translate(2 1)"/></svg>