<svg height="20" viewBox="0 0 20 20" width="20" xmlns="http://www.w3.org/2000/svg"><path d="m3.95121951 11c.48781946 0 .88987267.367209.94481997.8402872l.00639954.1109323-.00043902 1.8008049 2.47416672-2.4734187c.37147433-.3714743.97375321-.3714743 1.34522754 0 .34289937.3428994.36927625.8824607.07913062 1.2556157l-.07913062.0896119-2.47436987 2.4732155 1.8017561.0005122c.52534403 0 .95121951.4258755.95121951.9512195 0 .4878194-.36720896.8898727-.84028722.94482l-.11093229.0063995-4.17271944-.0029257-.09082037-.0115752-.13189989-.0331269-.12791544-.0527557-.07621397-.0426212-.04218562-.0279398c-.015728-.0108951-.03137005-.022552-.04672239-.0347517l-.08165328-.0728662c-.04038545-.0403844-.07634562-.0834475-.10792485-.1286413l-.07033713-.1182064-.0526406-.1274017-.0301295-.1152477-.01596324-.1269026-.00165477-.0562574v-4.097561c0-.525344.42587548-.9512195.95121951-.9512195zm7.99999999 6c-.525344 0-.9512195-.4258755-.9512195-.9512195 0-.4878195.367209-.8898727.8402872-.94482l.1109323-.0063995 1.8008049-.0005122-2.4734187-2.4732155c-.3714743-.3714743-.3714743-.9737532 0-1.3452276.3428994-.3428993.8824607-.3692762 1.2556157-.0791306l.0896119.0791306 2.4732155 2.4734187.0005122-1.8008049c0-.525344.4258755-.9512195.9512195-.9512195.4878194 0 .8898727.367209.94482.8402872l.0063995.1109323-.0029257 4.1727195-.0115752.0908203-.0331269.1318999-.0527557.1279155-.0426212.0762139-.0279398.0421856c-.0108951.015728-.022552.0313701-.0347517.0467224l-.0728662.0816533c-.0403844.0403855-.0834475.0763456-.1286413.1079249l-.0954301.0585196-.0934736.0436975-.1003239.0340003-.1003033.0220266-.1544849.0124812zm-3.90243901-14c.52534403 0 .95121951.42587548.95121951.95121951 0 .48781946-.36720896.88987267-.84028722.94481997l-.11093229.00639954-1.8017561-.00043902 2.47436987 2.47416672c.37147432.37147433.37147432.97375321 0 1.34522754-.34289938.34289937-.88246063.36927625-1.25561568.07913062l-.08961186-.07913062-2.47416672-2.47436987.00043902 1.8017561c0 .52534403-.42587548.95121951-.95121951.95121951-.48781945 0-.88987266-.36720896-.94481996-.84028722l-.00639955-.11093229.0029257-4.17271944.01157521-.09082037.03312687-.13189989.05275574-.12791544.04262115-.07621397.0279398-.04218562c.01089509-.015728.02255208-.03137005.03475172-.04672239l.07286622-.08165328c.04038444-.04038545.0834475-.07634562.12864134-.10792485l.11820632-.07033713.12740175-.0526406.11524767-.0301295.06813722-.01072483.1150228-.00689318zm3.90243901 0h4.097561l.0751585.0029257.0908203.01157521.1318999.03312687.1279155.05275574.0762139.04262115.0421856.0279398c.015728.01089509.0313701.02255208.0467224.03475172l.0816533.07286622c.0403855.04038444.0763456.0834475.1079249.12864134l.0703371.11820632.0526406.12740175.0301295.11524767.0159632.12690257.0016548.05625745v4.09756098c0 .52534403-.4258755.95121951-.9512195.95121951-.4878195 0-.8898727-.36720896-.94482-.84028722l-.0063995-.11093229-.0005122-1.8017561-2.4732155 2.47436987c-.3714743.37147432-.9737532.37147432-1.3452276 0-.3428993-.34289938-.3692762-.88246063-.0791306-1.25561568l.0791306-.08961186 2.4734187-2.47416672-1.8008049.00043902c-.525344 0-.9512195-.42587548-.9512195-.95121951 0-.48781945.367209-.88987266.8402872-.94481996z" fill="#e3003c"/></svg>