<svg height="20" viewBox="0 0 20 20" width="20" xmlns="http://www.w3.org/2000/svg"><g fill="#e3003c" fill-rule="evenodd" transform="translate(4 2)"><path d="m5 0c-.55228 0-1 .44772-1 1s.44772 1 1 1h2c.5523 0 1-.44772 1-1s-.4477-1-1-1z" fill-rule="nonzero"/><path d="m0 3c0-1.10457.89543-2 2-2 0 1.65685 1.34315 3 3 3h2c1.6569 0 3-1.34315 3-3 1.1046 0 2 .89543 2 2v11c0 1.1046-.8954 2-2 2h-8c-1.10457 0-2-.8954-2-2zm3 4c-.55228 0-1 .44772-1 1 0 .5523.44772 1 1 1h.01c.55228 0 1-.4477 1-1 0-.55228-.44772-1-1-1zm3 0c-.55228 0-1 .44772-1 1 0 .5523.44772 1 1 1h3c.5523 0 1-.4477 1-1 0-.55228-.4477-1-1-1zm-3 4c-.55228 0-1 .4477-1 1s.44772 1 1 1h.01c.55228 0 1-.4477 1-1s-.44772-1-1-1zm3 0c-.55228 0-1 .4477-1 1s.44772 1 1 1h3c.5523 0 1-.4477 1-1s-.4477-1-1-1z"/></g></svg>