<svg width="16" height="16" viewBox="0 0 16 16" fill="none" xmlns="http://www.w3.org/2000/svg">
<ellipse cx="1.99997" cy="14" rx="1.99997" ry="1.99997" fill="white"/>
<path d="M12.1212 5.14014C11.6638 3.84349 10.9698 2.68684 10.1665 1.88352C9.06187 0.778868 7.50056 0.0955432 5.88392 0.0088777C4.18195 -0.0777878 2.65798 0.472205 1.56533 1.56552C-0.641302 3.77283 -0.491971 7.79211 1.88399 10.1674C2.68664 10.9701 3.84262 11.6641 5.1406 12.1214C5.1766 12.1341 5.21393 12.1401 5.25127 12.1401C5.33793 12.1401 5.42326 12.1061 5.48726 12.0427L12.0432 5.48681C12.1325 5.39547 12.1631 5.26148 12.1212 5.14014Z" fill="white"/>
<path d="M15.8831 13.414L12.2418 10.2927C12.6745 9.30739 12.7751 8.06608 12.5311 6.68209C12.5098 6.55943 12.4218 6.45943 12.3031 6.4221C12.1825 6.38476 12.0545 6.41743 11.9671 6.50476L6.50389 11.9674C6.41589 12.0554 6.38389 12.1847 6.42189 12.3034C6.45922 12.422 6.55922 12.51 6.68189 12.5314C8.06386 12.776 9.30651 12.6753 10.2925 12.2427L13.4138 15.884C13.4784 15.9593 13.5711 16 13.6664 16C13.7171 16 13.7678 15.9886 13.8158 15.9646C14.7398 15.5026 15.5024 14.74 15.9651 13.8153C16.0331 13.6787 15.9997 13.5127 15.8831 13.414Z" fill="white"/>
</svg>
