<svg height="20" viewBox="0 0 20 20" width="20" xmlns="http://www.w3.org/2000/svg"><path d="m3 17c0-.5523.44772-1 1-1h12c.5523 0 1 .4477 1 1s-.4477 1-1 1h-12c-.55228 0-1-.4477-1-1zm3.29289-10.29289c-.39052-.39053-.39052-1.02369 0-1.41422l3-3c.18754-.18753.44189-.29289.70711-.29289.2652 0 .5196.10536.7071.29289l3 3c.3905.39053.3905 1.02369 0 1.41422-.3905.39052-1.0237.39052-1.4142 0l-1.2929-1.2929v7.58579c0 .5523-.4477 1-1 1-.55229 0-1-.4477-1-1v-7.58579l-1.29289 1.2929c-.39053.39052-1.02369.39052-1.41422 0z" fill="#e3003c" fill-rule="evenodd"/></svg>