<svg width="32" height="32" viewBox="0 0 32 32" fill="none" xmlns="http://www.w3.org/2000/svg">
<path d="M0 16C0 7.16347 7.16347 0 16 0C24.8365 0 32 7.16347 32 16C32 24.8365 24.8365 32 16 32C7.16347 32 0 24.8365 0 16Z" fill="#FF0000"/>
<path d="M24.1767 12.0488C23.9804 11.2948 23.4021 10.7011 22.6677 10.4996C21.3369 10.1334 16 10.1334 16 10.1334C16 10.1334 10.6631 10.1334 9.33221 10.4996C8.59781 10.7011 8.01947 11.2948 7.82321 12.0488C7.46667 13.4154 7.46667 16.2667 7.46667 16.2667C7.46667 16.2667 7.46667 19.1179 7.82321 20.4846C8.01947 21.2386 8.59781 21.8323 9.33221 22.0339C10.6631 22.4 16 22.4 16 22.4C16 22.4 21.3369 22.4 22.6677 22.0339C23.4021 21.8323 23.9804 21.2386 24.1767 20.4846C24.5333 19.1179 24.5333 16.2667 24.5333 16.2667C24.5333 16.2667 24.5333 13.4154 24.1767 12.0488Z" fill="white"/>
<path d="M14.4 19.2V13.8666L18.6667 16.5334L14.4 19.2Z" fill="#FF0000"/>
</svg>
