<svg width="24" height="24" viewBox="0 0 24 24" fill="none" xmlns="http://www.w3.org/2000/svg">
<path fill-rule="evenodd" clip-rule="evenodd" d="M12 0C5.37258 0 0 5.37258 0 12C0 18.6274 5.37258 24 12 24C18.6274 24 24 18.6274 24 12C24 5.37258 18.6274 0 12 0ZM17.7632 8.28631C18.1468 8.68322 18.272 9.58454 18.272 9.58454C18.272 9.58454 18.4 10.6432 18.4 11.7015V12.694C18.4 13.7527 18.272 14.811 18.272 14.811C18.272 14.811 18.1468 15.7123 17.7632 16.1092C17.3246 16.5787 16.8383 16.6272 16.5635 16.6547C16.5332 16.6577 16.5056 16.6604 16.4808 16.6635C14.6896 16.7959 12 16.8 12 16.8C12 16.8 8.672 16.7689 7.648 16.6684C7.59948 16.6591 7.54067 16.6519 7.47407 16.6437C7.14971 16.604 6.6406 16.5416 6.2364 16.1092C5.8528 15.7123 5.728 14.811 5.728 14.811C5.728 14.811 5.6 13.7527 5.6 12.694V11.7015C5.6 10.6432 5.728 9.58454 5.728 9.58454C5.728 9.58454 5.8528 8.68322 6.2364 8.28631C6.67594 7.81612 7.1627 7.76813 7.43759 7.74103C7.46739 7.73809 7.49471 7.7354 7.5192 7.73244C9.3104 7.6 11.9972 7.6 11.9972 7.6H12.0028C12.0028 7.6 14.6896 7.6 16.4808 7.73244C16.5053 7.7354 16.5326 7.7381 16.5624 7.74104C16.8371 7.76815 17.3241 7.8162 17.7632 8.28631Z" fill="#E3003C"/>
<path d="M10.6784 13.8966L10.678 10.2214L14.1364 12.0654L10.6784 13.8966Z" fill="#E3003C"/>
</svg>
